<?xml version="1.0" standalone="no"?>
<!DOCTYPE svg PUBLIC "-//W3C//DTD SVG 20010904//EN"
 "http://www.w3.org/TR/2001/REC-SVG-20010904/DTD/svg10.dtd">
<svg version="1.0" xmlns="http://www.w3.org/2000/svg"
 width="1200.000000pt" height="1200.000000pt" viewBox="0 0 1200.000000 1200.000000"
 preserveAspectRatio="xMidYMid meet">
<metadata>
Created by potrace 1.11, written by Peter Selinger 2001-2013
</metadata>
<g transform="translate(0.000000,1200.000000) scale(0.100000,-0.100000)"
fill="#000000" stroke="none">
<path d="M0 6000 l0 -6000 6000 0 6000 0 0 6000 0 6000 -6000 0 -6000 0 0
-6000z m5656 4175 c4 -11 18 -13 51 -10 31 3 50 -1 60 -11 8 -7 22 -14 31 -14
16 1 16 2 0 14 -16 12 -15 13 12 12 16 -1 30 -5 30 -10 0 -4 7 -6 15 -3 8 4
17 2 20 -3 4 -6 15 -10 26 -10 13 0 19 -7 19 -21 0 -21 0 -21 19 2 11 13 23
21 27 17 4 -4 1 -14 -6 -23 -8 -10 -9 -15 -1 -15 6 0 11 4 11 9 0 5 9 11 21
14 16 4 19 2 15 -10 -4 -10 -2 -14 6 -10 49 18 56 17 61 -3 5 -18 9 -20 26
-11 26 14 44 14 35 0 -5 -8 2 -10 23 -7 17 2 35 -2 42 -10 8 -8 23 -11 42 -7
16 4 44 8 62 10 17 1 41 6 52 10 16 5 17 5 5 -4 -18 -13 -21 -12 61 -14 36 -1
73 -8 81 -15 9 -7 35 -13 59 -15 24 -1 49 -8 55 -15 11 -16 103 -44 149 -47
36 -2 75 -25 75 -43 0 -8 9 -12 23 -10 12 2 28 -4 34 -12 11 -13 14 -13 22 -1
8 12 12 12 26 -2 9 -10 24 -17 33 -17 9 0 30 -7 46 -15 22 -12 31 -13 37 -4 8
14 29 3 29 -16 0 -9 6 -12 17 -8 10 4 14 2 10 -4 -7 -11 23 -23 59 -23 11 0
29 -9 39 -20 22 -24 29 -25 51 -3 16 16 16 16 10 -5 -5 -16 -4 -22 6 -20 7 2
12 -2 11 -8 -1 -8 16 -11 50 -9 30 1 61 -3 74 -11 17 -10 23 -11 26 -1 3 7 6
5 6 -5 1 -10 6 -18 12 -18 6 0 20 -11 30 -25 13 -15 26 -22 36 -18 11 4 14 3
9 -5 -4 -7 0 -15 11 -19 36 -13 103 -64 103 -78 0 -8 9 -15 20 -15 11 0 20 -5
20 -10 0 -6 3 -9 8 -8 22 4 117 -64 105 -76 -8 -8 26 -56 40 -56 7 0 18 -9 25
-20 7 -12 17 -18 22 -15 5 3 26 -10 45 -29 19 -20 39 -36 43 -37 18 -4 52 -39
50 -51 -2 -7 3 -12 10 -10 7 1 17 -9 23 -22 7 -14 17 -22 25 -19 9 3 14 -2 14
-16 0 -12 6 -21 15 -21 8 0 15 -4 15 -10 0 -5 5 -10 11 -10 6 0 20 -11 31 -25
11 -14 26 -25 34 -25 8 0 14 -3 14 -7 0 -9 48 -33 64 -33 18 -1 56 -37 56 -53
0 -8 13 -17 30 -20 18 -4 30 -13 30 -23 0 -8 6 -14 12 -12 15 5 48 -34 48 -57
0 -9 4 -14 9 -11 4 3 6 -5 4 -18 -3 -13 2 -30 12 -39 9 -9 18 -25 20 -36 4
-24 27 -61 37 -61 5 0 8 -9 8 -20 0 -11 5 -20 11 -20 5 0 9 -8 8 -17 -1 -10 2
-31 7 -48 10 -37 11 -41 13 -61 0 -8 6 -12 11 -9 6 3 10 -2 10 -12 0 -10 9
-29 19 -42 10 -14 16 -31 13 -40 -4 -10 -1 -12 7 -6 10 6 11 3 2 -14 -9 -17
-9 -21 1 -19 7 2 12 -2 11 -9 -2 -8 4 -10 14 -6 11 4 14 3 9 -6 -5 -7 4 -25
23 -44 32 -33 71 -101 71 -124 0 -7 5 -13 10 -13 6 0 10 -6 10 -14 0 -8 10
-22 23 -31 15 -12 18 -19 9 -22 -10 -4 -8 -9 5 -19 14 -11 15 -15 5 -22 -11
-7 -10 -10 3 -16 9 -3 20 -4 25 -1 4 3 11 -6 14 -20 8 -33 56 -139 66 -145 4
-3 6 -17 4 -32 -1 -15 2 -30 7 -33 5 -4 6 -17 3 -31 -6 -24 9 -34 21 -14 9 14
45 -58 39 -75 -3 -7 2 -15 10 -18 9 -4 16 -14 16 -23 0 -10 3 -14 7 -11 11 12
31 -13 26 -34 -4 -13 -1 -19 8 -17 9 2 13 -4 11 -15 -2 -10 2 -25 9 -33 8 -10
8 -18 1 -26 -7 -9 -5 -17 6 -28 14 -13 15 -12 9 3 -6 16 -5 16 18 1 27 -18 33
-29 11 -21 -20 8 -27 -3 -15 -25 14 -27 0 -46 -18 -23 -7 11 -13 14 -13 7 0
-6 7 -17 16 -24 8 -7 23 -21 31 -30 12 -13 21 -14 35 -7 17 9 18 8 6 -13 -7
-13 -18 -26 -24 -30 -16 -10 -5 -58 13 -58 10 0 13 -6 9 -17 -5 -15 -4 -15 9
1 13 17 13 21 -3 32 -13 10 -14 16 -5 24 8 9 18 5 41 -16 16 -16 32 -39 36
-51 4 -12 15 -24 24 -26 10 -3 5 -5 -11 -6 -28 -1 -35 -26 -7 -26 8 0 14 -12
14 -28 1 -16 8 -32 15 -36 8 -5 11 -17 6 -30 -4 -12 -2 -21 4 -21 6 0 11 6 12
13 0 6 5 -1 10 -18 11 -36 3 -79 -13 -69 -7 5 -8 3 -3 -6 5 -8 2 -18 -9 -25
-14 -11 -15 -13 -1 -19 8 -3 15 -12 15 -21 0 -8 7 -15 15 -15 8 0 15 -9 15
-20 0 -11 -4 -20 -10 -20 -5 0 -10 7 -10 15 0 8 -4 15 -10 15 -5 0 -10 -2 -10
-5 0 -10 25 -50 40 -62 13 -11 12 -12 -4 -7 -16 6 -17 4 -7 -14 11 -21 6 -52
-10 -52 -13 0 -11 18 3 22 15 5 3 25 -25 39 l-22 12 20 -22 c16 -19 17 -24 5
-32 -12 -7 -13 -11 -2 -18 8 -4 14 -12 13 -17 0 -5 12 -8 27 -7 25 2 26 1 8
-12 -13 -10 -24 -11 -37 -5 -20 11 -26 5 -33 -35 -8 -41 37 -66 47 -27 3 9 4
5 4 -10 -1 -21 -5 -27 -18 -23 -8 3 -24 -4 -34 -15 -14 -16 -15 -23 -6 -34 7
-8 10 -20 6 -27 -6 -8 -9 -8 -15 0 -3 7 -7 -1 -7 -18 0 -16 5 -28 11 -27 6 2
8 1 4 -1 -4 -2 -4 -12 -1 -21 4 -15 3 -15 -7 -2 -9 11 -13 12 -17 3 -3 -10
-10 -10 -31 1 -15 7 -43 17 -62 20 l-35 7 30 -14 c17 -8 44 -20 62 -27 50 -19
56 -32 28 -63 -30 -31 -32 -41 -6 -27 30 16 38 12 12 -6 -17 -12 -21 -23 -17
-43 l5 -26 -12 28 c-6 15 -13 27 -16 27 -3 -1 -14 -17 -23 -37 -14 -29 -15
-39 -5 -45 7 -4 7 -8 2 -8 -6 0 -11 -12 -10 -27 0 -16 5 -27 11 -26 19 3 11
-25 -8 -30 -10 -3 -16 -1 -12 4 3 5 -2 9 -12 9 -12 0 -15 -6 -10 -22 17 -61
16 -70 -2 -33 -46 93 -73 101 -43 12 11 -30 17 -58 14 -61 -4 -3 1 -6 9 -6 9
0 18 -10 21 -21 l6 -21 -23 21 c-12 11 -28 21 -34 21 -7 0 -12 5 -12 11 0 5
-5 7 -10 4 -6 -4 -7 -11 -4 -17 5 -7 1 -9 -9 -5 -30 11 -26 -10 6 -33 18 -12
26 -17 20 -9 -18 18 -16 34 2 19 14 -12 21 -50 9 -50 -5 0 -117 98 -202 178
-25 23 -40 42 -34 42 7 0 20 -8 31 -19 18 -18 19 -18 46 10 24 26 24 43 0 20
-15 -15 -128 26 -155 54 l-23 25 27 0 c15 0 48 -12 74 -27 25 -15 43 -22 39
-16 -4 6 -1 13 5 16 21 7 -27 53 -126 121 -195 133 -202 138 -287 209 -31 26
-59 47 -62 47 -3 0 -7 -7 -10 -15 -6 -14 21 -35 66 -51 9 -3 17 -10 17 -15 0
-5 18 -20 41 -34 22 -15 67 -50 99 -78 32 -29 75 -66 96 -83 22 -18 36 -34 33
-38 -10 -10 -87 38 -149 92 -72 64 -78 60 -14 -8 l47 -50 -48 14 c-26 8 -59
25 -73 38 -20 18 -24 19 -19 5 5 -14 2 -16 -18 -11 -14 3 -25 4 -25 0 0 -3 18
-10 39 -16 30 -8 48 -22 76 -62 32 -44 34 -50 16 -45 -62 16 19 -92 89 -119
57 -22 80 -41 62 -53 -10 -6 -7 -12 12 -25 33 -21 33 -36 1 -36 -16 0 -42 15
-69 40 -43 40 -70 54 -45 24 11 -14 10 -19 -10 -35 -28 -23 -37 -24 -44 -5 -3
8 -30 21 -59 30 -42 12 -60 24 -86 57 -17 24 -32 49 -32 56 0 7 -6 13 -13 13
-7 0 -17 9 -22 19 -27 53 -74 128 -89 140 -27 23 -20 -22 9 -53 37 -40 30 -59
-13 -37 -9 5 -42 14 -72 21 -71 16 -90 27 -90 49 0 11 -8 22 -17 25 -15 6 -15
8 -3 17 12 8 10 9 -6 4 -14 -4 -24 0 -28 10 -9 24 -26 17 -26 -11 0 -20 -4
-25 -17 -21 -10 3 -40 11 -68 18 -34 10 -60 26 -85 52 -34 37 -87 67 -118 67
-12 0 -10 -5 7 -24 36 -38 19 -45 -61 -25 -40 10 -80 19 -88 18 -20 0 73 -33
138 -48 40 -10 57 -21 74 -45 12 -17 30 -38 41 -47 11 -9 21 -25 22 -35 2 -29
53 -104 70 -104 8 0 15 -4 15 -10 0 -13 4 -13 -60 10 -30 12 -65 33 -78 48
-23 26 -23 26 -17 4 4 -13 19 -43 34 -65 30 -47 54 -108 45 -116 -7 -7 -39 34
-59 76 -17 36 -42 53 -75 53 -22 0 -22 -1 -5 -26 22 -33 15 -39 -30 -24 -42
14 -54 7 -37 -20 11 -18 9 -20 -12 -20 -13 0 -61 11 -107 24 -46 13 -100 27
-120 30 -33 6 -78 40 -67 51 2 2 35 -7 73 -20 66 -24 103 -26 91 -6 -4 5 -25
16 -49 25 -23 9 -68 25 -99 36 -39 14 -65 32 -80 52 l-22 31 34 -6 c18 -4 47
-14 63 -22 17 -8 32 -13 35 -10 3 2 -23 18 -58 34 -34 16 -71 39 -82 51 -15
16 -23 18 -33 10 -21 -18 -68 -3 -109 34 -48 44 -46 57 5 39 49 -16 61 -11 25
11 -14 9 -36 22 -48 30 -23 14 -76 101 -67 110 2 2 21 -1 42 -7 28 -9 37 -17
37 -34 0 -13 5 -22 13 -20 6 1 11 -6 11 -16 -2 -14 1 -15 12 -6 11 9 11 15 3
25 -14 17 -1 37 20 30 9 -4 6 3 -9 17 -32 28 -55 65 -64 100 -3 15 -13 27 -20
27 -8 0 -21 3 -30 6 -14 6 -14 3 -1 -22 8 -16 15 -35 15 -41 0 -18 -37 -16
-44 2 -3 8 -13 15 -21 15 -9 0 -14 4 -10 10 7 11 -9 42 -44 85 -21 27 -22 30
-6 33 9 2 37 -11 62 -28 24 -18 46 -30 49 -27 3 3 -11 15 -31 27 -44 27 -65
60 -38 60 10 0 35 -5 56 -11 30 -8 42 -19 62 -59 14 -28 30 -50 36 -50 6 0 2
16 -10 36 -12 19 -21 43 -21 52 0 18 -68 92 -84 92 -6 0 -5 -5 2 -12 20 -20
14 -29 -18 -26 -33 4 -75 42 -64 59 3 6 17 9 30 6 31 -6 30 0 -2 25 -19 16
-23 23 -13 29 15 9 -46 39 -80 39 -17 0 -76 19 -271 87 -25 8 -74 30 -110 48
-36 18 -103 45 -150 60 -58 20 -94 38 -115 60 -30 30 -31 30 -50 13 -10 -10
-22 -18 -26 -18 -5 0 -27 25 -50 55 -40 53 -69 70 -69 41 0 -8 5 -18 10 -21
17 -10 11 -35 -8 -35 -10 0 -27 7 -39 15 -24 17 -93 44 -132 51 -13 3 -34 10
-45 17 -12 6 -46 21 -76 33 -51 19 -56 24 -67 65 -7 24 -15 54 -18 66 -6 19 0
23 64 44 85 27 93 44 17 35 l-54 -6 -16 40 c-9 24 -26 44 -39 49 -12 5 -23 8
-25 6 -7 -6 24 -73 42 -87 17 -14 18 -20 7 -27 -9 -6 -27 5 -59 38 -35 34 -47
42 -50 30 -2 -9 6 -32 17 -50 12 -19 21 -37 21 -40 0 -9 -87 -45 -126 -53 -22
-5 -59 4 -137 32 -59 22 -109 36 -112 32 -9 -14 6 -39 26 -45 22 -7 22 -42 0
-37 -7 1 -10 -2 -6 -8 3 -5 -1 -10 -9 -10 -31 0 -66 24 -91 62 l-26 39 22 17
c25 21 16 31 -47 51 -30 10 -43 21 -52 44 -6 17 -10 32 -9 34 2 1 27 -6 55
-17 89 -34 60 13 -34 55 -34 14 -67 37 -73 49 -15 28 -69 50 -87 35 -13 -10
-89 17 -214 78 -69 34 -65 30 -50 48 10 12 10 15 -4 15 -10 0 -14 -4 -11 -10
3 -5 1 -10 -5 -10 -13 0 -110 42 -162 70 -40 21 -68 25 -83 11 -15 -13 -83
-33 -123 -35 -23 -2 -58 8 -90 23 -53 25 -54 26 -68 7 -20 -27 -18 -32 16 -46
32 -13 38 -26 18 -33 -13 -4 -108 69 -108 83 0 10 81 50 91 44 5 -3 6 2 3 11
-6 14 -9 14 -30 0 -13 -8 -24 -12 -24 -9 0 4 -9 -1 -20 -11 -11 -10 -20 -13
-20 -7 0 5 -8 8 -17 6 -12 -3 -38 15 -78 56 -38 38 -68 60 -82 60 -13 0 -23
-3 -23 -7 0 -4 28 -36 62 -70 34 -35 58 -63 52 -63 -13 0 -57 -40 -51 -47 3
-2 24 1 47 7 31 8 45 8 56 -1 22 -18 17 -29 -23 -45 -42 -17 -264 -128 -294
-147 -10 -6 -19 -16 -19 -21 0 -19 70 7 224 84 133 65 163 77 174 66 11 -11 7
-17 -23 -35 -20 -11 -38 -21 -41 -21 -24 0 -296 -127 -319 -149 -16 -16 -39
-31 -51 -33 -18 -5 -21 -1 -21 26 0 24 13 43 62 91 67 66 105 114 124 160 13
30 13 30 -8 11 -12 -11 -21 -14 -21 -8 0 7 -4 12 -9 12 -7 0 -117 -130 -229
-270 -23 -28 -39 -22 -23 7 8 16 7 20 -6 20 -20 0 -56 -79 -41 -88 7 -5 0 -21
-20 -47 -38 -47 -52 -82 -52 -125 l1 -32 49 55 c28 30 50 53 50 50 0 -3 -11
-36 -25 -74 -27 -75 -31 -106 -14 -106 7 0 8 -7 4 -17 -4 -10 -8 -25 -9 -33
-2 -8 -9 -15 -17 -15 -8 0 -18 -6 -22 -12 -11 -18 -28 -16 -21 1 10 26 -18 30
-37 5 -15 -20 -19 -21 -19 -6 0 33 -17 16 -80 -83 -90 -142 -88 -141 -150 -94
-27 21 -46 40 -41 43 21 14 11 90 -15 112 -11 9 -14 7 -14 -14 l0 -26 -25 25
c-31 31 -34 58 -4 49 16 -5 30 2 60 34 54 56 53 91 -1 45 -8 -7 -26 -14 -40
-16 -15 -2 -25 -9 -24 -19 1 -9 -7 -21 -16 -27 -14 -9 -19 -6 -29 14 -6 15 -7
24 -1 24 6 0 10 -6 11 -12 0 -7 5 -2 10 11 8 19 5 28 -10 42 -12 12 -27 16
-38 12 -12 -4 -15 -3 -8 5 6 5 18 12 28 14 10 1 17 8 15 13 -1 6 -9 9 -18 7
-12 -2 -12 -1 -1 6 16 11 24 79 10 88 -5 3 -6 16 -3 30 4 15 2 24 -5 24 -9 0
-9 5 -1 21 7 11 8 24 4 27 -4 4 -9 1 -11 -5 -6 -17 -23 -16 -23 1 0 7 -11 21
-24 31 -13 10 -22 24 -19 32 3 8 -2 13 -14 13 -24 0 -66 29 -43 30 13 0 13 1
0 10 -12 8 -11 10 6 10 16 0 20 7 21 35 1 34 21 65 42 65 6 0 11 5 11 10 0 6
-4 10 -9 10 -5 0 -12 7 -15 16 -3 8 -2 13 3 10 13 -9 23 26 11 38 -13 13 -13
29 0 21 6 -3 10 -1 10 6 0 7 11 24 24 38 43 45 71 111 71 169 0 38 3 52 14 52
11 0 11 4 -3 19 -14 15 -14 20 -3 30 8 6 22 9 31 5 9 -3 16 -2 16 4 0 6 -6 13
-12 15 -8 3 -6 6 4 6 12 1 16 7 12 19 -5 14 -4 14 4 3 9 -13 14 -11 29 8 18
22 20 22 35 7 20 -19 29 -21 26 -4 -2 7 7 14 20 16 23 3 29 16 13 26 -12 8 48
69 69 70 18 2 60 28 60 38 0 4 14 21 31 39 18 19 28 37 24 47 -3 8 3 23 15 34
14 14 18 23 11 31 -14 18 12 49 34 40 15 -5 17 -3 12 11 -5 13 -3 17 6 13 10
-4 13 2 9 19 -3 17 0 24 12 24 9 0 19 7 22 15 4 8 12 15 19 15 8 0 17 9 20 20
3 11 13 20 21 20 8 0 14 6 14 14 0 7 11 22 25 32 14 10 25 25 25 32 0 15 56
72 71 72 5 0 9 5 9 10 0 6 4 10 10 10 19 0 48 33 42 48 -4 11 -1 14 11 9 17
-6 21 3 18 31 -2 10 4 12 18 7 15 -4 20 -2 16 7 -2 7 7 21 20 31 24 17 25 17
26 0 0 -14 2 -13 9 5 5 12 21 27 35 32 14 5 25 15 26 22 0 10 2 10 6 1 5 -14
33 -18 33 -5 0 5 -9 13 -20 18 -19 8 -17 12 25 44 24 19 42 40 40 47 -2 7 2
10 11 6 10 -4 17 2 21 16 3 11 11 21 18 21 7 0 15 9 18 21 3 12 10 18 15 15 5
-3 12 8 15 24 4 20 11 28 20 24 8 -3 20 2 27 11 8 10 9 15 1 15 -6 0 -11 5
-11 11 0 6 6 9 13 6 14 -5 39 18 29 27 -3 4 4 9 16 13 13 3 22 13 22 25 0 13
4 17 13 12 9 -6 9 -5 0 7 -9 11 -5 20 18 43 16 17 29 23 29 16 0 -7 3 -11 6
-8 3 3 0 15 -8 27 -11 18 -10 23 12 38 14 10 29 18 35 18 41 3 85 19 85 32 0
10 6 12 20 8 12 -4 20 -2 20 5 0 7 7 10 15 6 10 -3 15 1 15 11 0 9 3 13 6 10
4 -3 16 -2 27 4 14 8 18 8 13 0 -8 -12 16 -15 27 -4 11 11 58 13 51 2 -3 -6 3
-5 15 3 12 7 21 16 21 20 0 5 7 8 15 8 8 0 15 -4 15 -10 0 -5 9 -1 20 10 11
11 34 23 51 27 30 6 50 23 27 23 -10 0 -9 3 2 10 9 5 19 5 27 -2 10 -8 13 -6
13 6 0 10 9 16 25 16 16 0 32 11 47 30 15 21 27 28 40 24 12 -3 18 0 18 10 0
19 4 20 30 4 15 -10 22 -9 37 3 13 12 37 15 91 14 39 -1 72 2 72 7 0 12 22 10
54 -7 30 -16 46 -8 46 20 0 6 -5 3 -10 -5 -5 -8 -10 -10 -10 -5 0 22 17 34 38
28 12 -3 22 -9 22 -14 0 -4 10 -13 21 -20 17 -8 20 -8 14 1 -9 15 16 32 30 20
17 -14 168 7 182 26 7 9 19 14 28 11 8 -4 25 -2 37 3 32 12 38 12 44 -5z
m-579 -41 c-16 -9 -32 -13 -35 -9 -9 9 19 25 43 24 16 0 15 -2 -8 -15z m2163
-329 c7 -8 9 -15 6 -15 -4 0 -14 7 -22 15 -9 8 -11 15 -6 15 5 0 15 -7 22 -15z
m-2774 -1662 c16 -8 61 -31 99 -50 39 -19 86 -43 105 -53 19 -10 60 -28 90
-40 133 -52 200 -89 220 -122 11 -18 20 -38 20 -45 0 -19 -78 17 -105 49 -23
28 -62 48 -91 48 -8 0 -12 -4 -9 -10 10 -16 -14 -12 -54 10 -20 10 -88 40
-151 65 -63 26 -128 52 -145 59 -16 7 -51 22 -77 32 -53 21 -59 30 -25 44 12
5 35 18 52 29 18 13 32 16 36 10 3 -6 19 -17 35 -26z m-175 -128 c34 -25 66
-42 71 -39 18 11 28 -19 10 -32 -14 -10 -13 -13 7 -24 13 -6 21 -8 18 -3 -4 5
0 10 8 10 8 0 13 -3 10 -5 -3 -3 32 -25 78 -50 79 -43 127 -78 127 -93 0 -12
-98 28 -147 60 -26 17 -57 31 -70 31 -23 0 -50 22 -101 83 -12 15 -26 25 -31
23 -5 -3 -16 3 -26 14 -19 21 -45 27 -45 10 0 -5 16 -27 35 -48 19 -22 32 -42
28 -46 -3 -3 0 -6 8 -6 16 0 124 -118 116 -126 -3 -3 -15 0 -27 6 -18 10 -22
9 -18 -2 2 -7 28 -25 58 -40 29 -15 61 -35 70 -43 9 -8 19 -12 22 -9 12 11 54
-20 123 -91 76 -78 240 -284 232 -292 -3 -2 -26 12 -52 31 -25 20 -54 36 -63
36 -21 0 -72 49 -66 65 7 17 -25 42 -35 27 -5 -8 -14 -2 -29 18 -12 16 -22 33
-22 38 0 5 -35 38 -77 73 -43 35 -98 82 -123 104 -25 22 -58 50 -75 61 -25 19
-27 24 -16 38 18 22 8 30 -18 14 -18 -11 -24 -9 -48 13 -15 14 -43 36 -61 48
-32 22 -33 22 -107 7 -42 -9 -84 -20 -95 -26 -10 -5 -48 -10 -84 -10 -37 0
-74 -5 -84 -10 -9 -6 -56 -19 -104 -29 -140 -29 -106 -8 177 107 114 46 282
119 310 135 43 23 48 22 116 -28z m63 9 c23 -23 19 -40 -4 -19 -11 10 -20 22
-20 27 0 12 7 10 24 -8z m139 -63 c29 -15 37 -51 12 -51 -20 0 -55 36 -55 56
0 9 3 14 8 12 4 -2 19 -10 35 -17z m4493 -98 c-7 -7 -26 7 -26 19 0 6 6 6 15
-2 9 -7 13 -15 11 -17z m-4845 5 c1 -7 1 -18 0 -24 -1 -6 45 -53 101 -105
l102 -94 -37 -9 c-29 -8 -37 -14 -37 -32 0 -14 -10 -28 -24 -36 -114 -63 -106
-60 -106 -40 0 19 45 47 60 37 5 -3 11 -1 14 4 9 14 -13 24 -55 25 -36 1 -36
1 -35 -39 1 -23 6 -46 10 -53 10 -17 -32 -15 -68 3 -30 16 -46 12 -46 -11 0
-16 -36 -20 -42 -4 -2 5 -73 -8 -162 -31 -87 -22 -161 -37 -163 -35 -3 3 -1
17 4 33 10 30 64 66 125 83 20 6 47 19 60 31 l23 20 -45 -7 c-41 -6 -43 -5
-31 10 20 23 7 30 -30 17 -18 -6 -35 -9 -38 -6 -13 14 33 35 139 63 89 25 119
37 133 56 10 14 31 27 47 31 42 9 37 22 -9 30 -25 4 -61 1 -98 -10 -67 -19
-118 -17 -118 4 0 13 95 49 185 71 19 5 51 13 70 18 50 14 70 14 71 0z m5043
-165 c-6 -107 -9 -121 -28 -133 -20 -12 -20 -12 -4 6 13 15 17 41 19 104 2 91
9 154 16 146 2 -2 1 -58 -3 -123z m-4662 70 c24 -9 59 -29 78 -44 19 -15 47
-31 62 -34 14 -4 37 -18 50 -32 l23 -25 -25 7 c-35 10 -150 55 -180 70 -14 7
-41 27 -60 44 -32 28 -33 31 -13 31 13 0 42 -8 65 -17z m502 -47 c32 -40 30
-52 -8 -42 -21 5 -86 81 -86 100 0 15 69 -27 94 -58z m-1284 35 c0 -10 -24
-21 -43 -21 -7 0 -3 7 7 15 22 17 36 19 36 6z m-845 -41 c3 -6 -1 -7 -9 -4
-18 7 -21 14 -7 14 6 0 13 -4 16 -10z m981 -9 c-3 -5 -22 -12 -42 -15 -19 -4
-43 -9 -52 -12 -9 -2 1 5 23 16 42 20 80 27 71 11z m1075 -27 c29 -14 54 -42
47 -50 -8 -7 -78 23 -100 43 -39 35 -10 39 53 7z m219 -38 c0 -17 -21 -2 -35
24 -22 42 -19 46 10 12 14 -17 25 -33 25 -36z m-2240 24 c-14 -10 -27 -16 -30
-14 -2 3 6 14 20 24 14 10 27 16 30 14 2 -3 -6 -14 -20 -24z m10 -25 c-7 -8
-18 -15 -24 -15 -6 0 -2 7 8 15 25 19 32 19 16 0z m694 5 c-5 -5 -25 -12 -44
-15 -35 -5 -35 -5 5 9 50 18 51 18 39 6z m2024 -15 c13 -29 16 -55 5 -55 -23
0 -113 36 -110 44 3 9 60 34 83 35 6 1 16 -10 22 -24z m-277 -6 c17 -9 18 -13
7 -26 -11 -14 -8 -15 28 -9 38 7 42 5 68 -29 30 -39 30 -52 -1 -37 -24 12 -82
33 -113 40 -22 5 -24 3 -11 -11 7 -10 23 -17 35 -17 11 0 34 -7 50 -15 15 -8
37 -15 47 -15 19 0 99 -65 99 -80 0 -4 -18 -3 -40 2 -22 6 -38 13 -36 17 2 3
-6 7 -17 7 -33 3 -118 35 -150 56 -32 23 -57 61 -32 52 22 -9 18 9 -6 24 -20
13 -20 14 -3 33 19 21 45 24 75 8z m-641 -45 c67 -20 126 -93 63 -78 -51 12
-99 42 -128 79 -25 34 -26 36 -6 25 13 -6 44 -18 71 -26z m-1070 16 c0 -5 -19
-14 -42 -20 -24 -6 -56 -15 -72 -20 -36 -12 -56 -13 -56 -2 0 5 33 18 73 30
84 24 97 25 97 12z m731 -18 c64 -42 239 -203 233 -213 -2 -5 -26 -11 -52 -15
-26 -3 -54 -12 -62 -19 -21 -18 -97 -37 -119 -30 -22 7 -211 -30 -220 -43 -3
-5 -21 -17 -39 -26 -19 -10 -31 -20 -28 -23 8 -8 126 26 150 43 11 8 30 11 44
7 13 -3 55 0 93 7 67 13 70 13 94 -10 24 -23 37 -16 13 8 -16 16 -9 20 53 33
l55 11 60 -42 c32 -22 57 -44 55 -48 -5 -10 -60 -25 -170 -47 -72 -15 -95 -17
-99 -7 -5 15 -23 16 -20 1 3 -12 -2 -15 -74 -48 -49 -23 -69 -41 -46 -41 7 0
123 22 258 50 135 27 250 50 255 50 6 0 59 -36 119 -80 59 -44 114 -80 122
-80 7 0 21 -11 30 -24 8 -14 21 -23 29 -20 7 3 49 -31 94 -75 79 -78 97 -103
44 -61 -30 24 -55 26 -47 5 10 -26 -7 -17 -70 38 -85 73 -136 110 -143 103 -3
-3 17 -29 45 -57 51 -51 63 -67 40 -53 -7 4 -26 7 -43 6 -25 -2 -40 7 -79 47
-47 48 -48 50 -32 72 40 58 27 58 -219 9 -288 -57 -269 -51 -272 -83 -2 -25 1
-28 20 -24 12 3 105 22 205 43 l184 36 49 -48 c27 -26 49 -52 49 -56 0 -8 -65
-28 -91 -28 -11 0 -19 12 -24 37 -4 21 -9 42 -12 46 -11 18 -21 -16 -16 -54 5
-37 5 -38 -33 -44 -22 -4 -84 -15 -138 -26 -54 -10 -108 -19 -119 -19 -37 0
-137 -34 -134 -46 1 -6 -9 -21 -23 -32 -14 -11 -22 -23 -19 -27 4 -3 47 3 95
14 49 11 109 22 134 25 44 6 45 6 24 -12 -12 -9 -30 -22 -40 -29 -17 -10 -16
-11 6 -5 14 3 45 18 70 33 53 32 124 52 270 74 159 23 161 24 182 50 25 32 30
31 78 -4 40 -29 40 -52 0 -31 -11 6 -24 9 -28 6 -4 -2 -61 -14 -127 -26 -117
-21 -154 -37 -141 -59 16 -25 238 3 312 39 38 19 44 19 78 5 30 -13 50 -35 30
-35 -3 0 -76 -14 -162 -30 -87 -17 -190 -37 -231 -44 -40 -8 -78 -19 -84 -25
-8 -8 -8 -11 1 -11 22 0 12 -25 -16 -42 -34 -21 -111 -48 -134 -48 -26 0 -22
-13 9 -27 34 -16 56 -16 173 1 52 8 131 20 175 26 44 6 91 13 105 15 19 4 16
1 -10 -11 l-35 -17 40 -9 c22 -5 67 -7 100 -4 59 4 59 4 25 -9 -19 -7 -51 -14
-70 -14 -19 -1 -44 -4 -55 -7 -22 -6 -50 -42 -41 -51 3 -3 67 4 143 16 224 36
258 47 247 76 -10 24 15 26 49 3 54 -37 186 -142 186 -149 1 -3 -19 -6 -43 -6
-36 0 -54 7 -93 37 -46 34 -103 59 -103 44 0 -3 18 -24 41 -46 22 -22 39 -42
37 -44 -3 -2 -27 -6 -54 -9 -27 -3 -92 -12 -144 -20 -52 -7 -126 -17 -165 -20
-97 -9 -175 -25 -175 -36 0 -5 -7 -9 -15 -9 -8 0 -15 -5 -15 -11 0 -8 14 -10
43 -5 23 4 85 11 137 15 52 5 160 18 240 30 80 11 159 23 176 25 29 4 54 -8
54 -25 0 -8 -52 -19 -210 -44 -96 -16 -119 -25 -120 -48 0 -9 26 -6 220 23
255 39 263 39 284 21 18 -15 19 -15 13 1 -5 13 0 19 18 24 14 3 22 11 19 16
-4 6 -1 14 6 18 8 5 -4 22 -39 55 -29 27 -50 53 -48 59 3 6 -9 26 -26 43 -39
41 -30 51 23 25 22 -11 42 -16 45 -12 10 16 48 -4 95 -51 61 -61 90 -68 54
-14 -25 39 -12 49 26 21 19 -14 49 -31 65 -39 31 -14 46 -59 25 -72 -16 -10
-12 -25 6 -25 9 0 34 -5 56 -12 27 -8 37 -16 33 -26 -4 -11 -1 -12 12 -6 26
11 71 7 186 -17 60 -12 107 -27 114 -36 14 -18 96 -47 162 -58 24 -4 59 -14
77 -21 29 -12 34 -19 34 -49 l0 -35 -47 7 c-69 9 -96 18 -101 31 -2 7 7 12 22
12 14 0 26 4 26 9 0 12 -47 26 -140 41 -41 7 -91 17 -110 23 -19 6 -44 12 -56
13 -48 5 -104 26 -112 41 -8 13 -11 10 -20 -16 -6 -17 -9 -38 -6 -45 4 -9 -3
-16 -17 -18 -29 -4 -37 -28 -10 -28 12 0 23 -6 25 -12 3 -7 7 -73 11 -146 5
-107 3 -133 -7 -130 -7 3 -16 22 -19 44 -4 21 -16 64 -27 94 -21 57 -29 54
-34 -10 -3 -33 -5 -35 -38 -35 -28 0 -36 4 -38 22 -2 12 -9 27 -17 33 -11 10
-15 6 -20 -17 -11 -48 -13 -52 -32 -52 -10 0 -33 -2 -50 -5 -29 -5 -33 -3 -33
16 l0 22 -16 -22 c-29 -41 -78 -54 -226 -55 -87 -1 -134 -6 -131 -12 3 -5 0
-4 -8 3 -15 14 -33 16 -25 4 3 -5 -13 -7 -34 -5 -31 3 -40 1 -40 -12 0 -8 -7
-15 -15 -15 -8 0 -15 -4 -15 -9 0 -13 168 -6 541 25 l76 7 1 -89 c1 -51 6 -90
12 -92 5 -2 10 -11 10 -20 0 -10 3 -13 10 -6 5 5 10 52 12 104 l3 94 32 7 c18
3 35 4 38 1 10 -10 5 -261 -5 -267 -5 -3 -74 -13 -152 -21 -137 -14 -208 -32
-208 -53 0 -6 21 -8 53 -5 168 19 309 29 313 22 8 -13 -16 -19 -113 -28 -54
-5 -162 -14 -240 -21 -79 -8 -143 -17 -143 -21 0 -15 70 -19 195 -9 72 6 169
13 218 17 l87 7 0 -129 c0 -71 -4 -135 -8 -141 -5 -7 -28 -15 -53 -19 -139
-17 -213 -32 -196 -39 10 -4 42 -5 70 -1 103 12 142 17 154 21 13 4 36 -19 27
-28 -4 -3 -3 -27 1 -53 8 -54 24 -48 35 13 3 21 11 37 18 36 6 -2 14 8 18 21
7 29 16 31 164 46 171 17 239 30 234 44 -3 7 -15 12 -27 10 -12 -2 -78 -12
-147 -23 -69 -11 -147 -22 -173 -26 l-48 -6 3 48 c3 48 3 48 38 47 162 -7 187
-6 210 7 24 13 20 14 -57 24 -45 5 -84 12 -87 15 -6 7 349 -16 410 -26 31 -6
106 28 87 39 -4 2 -55 8 -113 11 -58 4 -139 11 -180 16 -41 6 -99 12 -128 14
-29 3 -60 10 -67 16 -8 7 -38 17 -66 24 l-52 11 -2 83 c-2 67 1 84 14 92 14 8
14 9 -1 10 -21 0 -25 38 -5 46 20 7 67 -13 67 -30 0 -7 -10 -17 -22 -21 l-23
-7 25 -7 c22 -6 25 -12 26 -59 1 -59 14 -84 15 -31 1 55 8 131 12 135 2 2 44
-2 94 -8 95 -12 159 -5 132 13 -10 8 -3 9 26 5 22 -3 72 -8 110 -12 l70 -6
-30 26 c-34 29 -35 29 63 26 73 -2 99 13 45 26 -50 12 -61 21 -55 50 5 25 7
26 51 20 164 -24 215 -28 219 -17 2 6 10 11 18 11 8 0 14 4 14 9 0 11 -35 21
-75 21 -16 0 -41 3 -53 7 -23 6 -24 9 -18 72 3 36 6 70 6 75 0 5 14 6 30 3 25
-5 30 -3 30 12 0 13 -10 20 -31 25 -22 4 -30 11 -27 23 5 22 48 20 85 -4 27
-18 103 -30 103 -16 0 24 -30 43 -85 55 -42 10 -61 19 -63 31 -4 20 33 23 88
6 100 -30 705 -169 737 -169 13 0 23 4 23 9 0 5 10 13 23 17 20 7 19 8 -13 15
-124 24 -195 49 -222 78 -15 16 -28 38 -28 47 0 10 -3 14 -6 11 -4 -3 -15 5
-26 18 -11 14 -25 25 -33 25 -7 0 -16 7 -19 16 -5 13 0 15 36 9 24 -4 50 -11
58 -15 20 -11 159 -30 214 -30 33 0 48 -6 67 -26 l24 -26 -34 7 c-23 5 -31 4
-27 -4 5 -7 -5 -11 -29 -11 -24 0 -34 -4 -29 -11 4 -7 22 -9 45 -6 40 5 150
-31 157 -52 5 -15 -12 -14 -133 10 -149 28 -155 18 -10 -15 66 -16 125 -33
131 -40 7 -7 9 -36 6 -78 -4 -66 -5 -68 -28 -62 -29 7 -31 -2 -4 -24 15 -13
20 -31 21 -68 1 -28 -1 -56 -4 -61 -14 -23 58 -59 84 -42 11 7 10 9 -4 9 -9 0
-22 11 -28 24 -13 27 -4 96 11 96 6 0 7 19 4 44 -4 25 -3 70 0 100 7 49 10 56
29 56 20 1 21 2 5 14 -43 33 -3 35 79 4 32 -12 64 -27 72 -34 20 -18 5 -54
-24 -54 -36 0 -41 -19 -6 -26 27 -6 29 -9 24 -43 -8 -57 -11 -61 -43 -61 l-30
0 0 82 c0 119 -17 84 -24 -50 -5 -90 -4 -113 6 -110 7 3 14 17 16 31 3 28 20
34 51 18 15 -8 16 -18 10 -63 -4 -29 -8 -77 -8 -105 -1 -59 -9 -63 -84 -42
-20 5 -42 7 -48 3 -16 -10 7 -22 69 -35 62 -13 67 -36 6 -30 -44 3 -39 -8 9
-24 29 -9 32 -13 28 -45 -1 -19 -8 -38 -13 -41 -7 -4 -7 -9 0 -13 8 -5 6 -83
-3 -94 -5 -5 -180 39 -185 48 -3 4 -21 10 -40 12 -19 3 -43 8 -53 13 -11 4
-23 3 -30 -4 -8 -8 -5 -11 12 -11 12 0 30 -9 39 -19 11 -13 55 -29 127 -46
126 -30 140 -36 131 -60 -4 -12 -14 -15 -36 -11 -16 3 -43 9 -60 12 -22 4 -30
2 -30 -9 0 -8 24 -21 61 -32 60 -18 61 -19 55 -49 -4 -17 -9 -69 -12 -116 -3
-47 -12 -95 -19 -106 -10 -16 -11 -24 -2 -33 8 -8 5 -11 -13 -11 -47 0 -52 11
-50 106 3 87 -11 156 -24 124 -3 -8 -9 -60 -13 -115 l-8 -100 -32 3 c-45 4
-45 -24 -1 -36 33 -8 42 -20 30 -38 -5 -8 -34 -7 -102 4 -149 23 -170 30 -170
52 0 25 -16 26 -29 2 -7 -14 -18 -18 -40 -14 -19 2 -31 0 -31 -7 0 -6 6 -11
13 -11 27 0 47 -39 47 -95 0 -46 -3 -55 -17 -55 -16 -1 -16 -2 -2 -13 9 -7 19
-33 23 -59 5 -32 12 -48 22 -48 18 0 32 32 16 38 -13 4 -17 107 -6 161 7 33
23 39 68 21 24 -9 24 -10 10 -40 -25 -49 -10 -59 20 -12 25 40 30 43 59 37
124 -23 155 -43 112 -71 l-27 -18 24 -18 23 -18 -41 0 c-39 0 -85 -22 -72 -35
3 -3 28 -9 55 -13 39 -6 49 -11 51 -29 3 -20 1 -21 -106 -16 -113 5 -175 -5
-185 -31 -4 -10 15 -17 70 -26 41 -6 72 -14 70 -17 -3 -2 -78 0 -167 6 -155 9
-210 4 -210 -19 0 -10 87 -23 99 -15 5 3 12 1 16 -5 3 -5 18 -10 33 -10 27 0
60 -15 52 -23 -3 -3 -31 -12 -62 -21 -32 -9 -58 -21 -58 -26 0 -5 19 -10 42
-12 68 -5 54 -22 -36 -46 -121 -32 -118 -33 -114 39 2 41 8 63 18 69 8 5 12
11 8 15 -6 7 -130 26 -135 21 -2 -2 12 -14 32 -27 19 -13 37 -31 40 -39 9 -29
8 -101 -2 -111 -15 -15 -118 -25 -109 -11 4 7 4 17 0 23 -3 6 -14 -2 -25 -20
-10 -17 -25 -31 -33 -31 -27 0 -27 -20 -1 -30 l27 -10 -4 -150 c-2 -82 -7
-153 -11 -156 -3 -4 -22 -3 -42 0 l-35 7 -1 72 c-1 40 -1 76 0 81 1 5 4 54 5
109 3 90 2 98 -12 83 -15 -14 -30 -141 -31 -263 -1 -36 -4 -43 -21 -43 -11 0
-20 6 -20 14 0 8 -5 16 -11 18 -7 2 -15 56 -20 133 -11 153 -16 188 -18 123
-1 -46 -2 -48 -31 -48 -26 0 -30 4 -31 28 l-1 27 -7 -25 c-5 -20 -14 -26 -44
-28 -32 -3 -37 0 -43 22 -5 20 -15 27 -47 33 l-42 9 2 110 c1 60 9 139 17 174
19 81 19 85 1 70 -13 -11 -15 -5 -15 43 0 31 -4 58 -9 61 -11 7 -17 -53 -20
-197 -1 -60 -4 -114 -7 -121 -3 -7 -6 -45 -7 -84 -3 -90 -10 -97 -76 -83 -29
6 -102 14 -164 17 -91 5 -116 3 -132 -9 -17 -13 -8 -15 100 -21 66 -4 145 -8
175 -11 30 -2 63 -4 74 -5 17 0 18 -6 12 -77 -7 -97 -18 -108 -113 -120 -72
-9 -93 1 -28 13 20 3 38 11 42 17 4 6 -3 8 -18 4 -13 -3 -50 -11 -81 -17 -32
-6 -58 -16 -58 -21 0 -5 -9 -9 -19 -9 -38 0 -51 -10 -40 -31 9 -17 22 -19 136
-19 108 0 128 2 138 17 13 17 14 17 32 0 25 -22 37 -22 54 3 8 10 26 22 41 25
23 6 27 3 30 -19 4 -33 21 -35 28 -4 4 16 13 23 30 23 21 0 24 -5 25 -33 1
-25 -4 -34 -20 -37 -11 -3 -123 -7 -250 -10 -335 -7 -395 -12 -395 -35 0 -22
25 -33 54 -24 18 6 19 5 7 -10 -12 -14 -8 -16 45 -18 33 -1 70 -3 84 -4 14 -1
40 -3 58 -3 30 -1 32 -3 22 -21 -7 -14 -21 -20 -45 -20 -18 0 -40 -7 -49 -15
-18 -19 -23 -19 -23 0 0 8 5 15 11 16 6 1 0 4 -14 8 -14 4 -24 13 -23 19 5 21
-20 13 -52 -18 l-30 -29 -20 29 c-11 17 -24 30 -28 30 -11 0 3 -43 17 -53 6
-4 -14 -7 -45 -6 -59 2 -136 34 -106 44 9 3 25 7 34 11 13 4 14 7 4 13 -16 11
-77 -3 -74 -16 1 -6 -9 -11 -22 -10 -31 0 -32 13 -2 38 12 10 16 18 10 19 -7
0 -13 -5 -13 -11 0 -6 -6 -9 -14 -6 -7 3 -20 -3 -29 -14 -9 -10 -24 -19 -32
-19 -8 0 -15 -9 -15 -19 0 -27 -13 -33 -44 -21 -14 5 -28 6 -30 1 -3 -5 -17
-6 -30 -4 -31 6 -63 -21 -48 -40 8 -9 8 -17 1 -27 -8 -11 -12 -12 -16 -2 -7
19 -47 16 -39 -4 4 -10 1 -14 -6 -12 -7 3 -15 22 -18 43 -5 35 -30 64 -30 34
0 -7 -3 -10 -6 -7 -3 4 1 17 10 30 12 19 13 31 4 68 -6 25 -14 50 -18 55 -22
29 -74 274 -64 300 5 11 -1 15 -21 15 -16 0 -24 4 -20 11 4 5 -7 15 -24 22
-40 15 -44 30 -24 86 20 56 13 93 -21 109 -20 9 -29 7 -50 -9 -29 -23 -33 -54
-14 -105 14 -40 2 -59 -46 -68 -37 -7 -82 -51 -83 -81 -1 -11 -16 -78 -34
-150 -17 -71 -32 -153 -33 -181 -1 -40 -4 -50 -15 -46 -10 4 -13 0 -9 -16 5
-18 4 -19 -13 -9 -16 10 -21 9 -29 -3 -5 -8 -7 -23 -4 -32 3 -10 0 -18 -6 -18
-6 0 -8 -5 -4 -12 4 -7 3 -8 -5 -4 -7 5 -9 16 -5 29 7 21 6 21 -21 3 -19 -12
-35 -15 -53 -10 -15 4 -33 6 -39 5 -7 -1 -13 5 -13 14 0 9 4 13 10 10 6 -3 7
1 4 9 -5 12 -8 13 -17 3 -21 -23 -38 -58 -32 -67 3 -5 1 -11 -5 -15 -5 -3 -10
-1 -10 5 0 7 -8 9 -22 4 l-23 -7 23 19 c15 13 23 31 24 57 1 20 6 37 11 37 5
0 5 6 -2 13 -17 21 -1 28 29 12 15 -8 38 -12 50 -10 18 3 20 2 10 -10 -17 -20
-9 -69 12 -73 23 -4 83 52 73 68 -5 8 -10 9 -18 1 -18 -18 -28 -12 -17 9 9 16
8 18 -5 14 -8 -4 -21 -1 -29 5 -7 6 -16 8 -20 4 -4 -4 -10 -3 -14 3 -4 6 -26
21 -49 33 -32 16 -41 25 -36 39 5 13 3 14 -6 6 -10 -9 -20 -8 -43 3 -26 13
-32 13 -39 2 -13 -21 -11 -25 16 -37 23 -11 26 -42 4 -42 -4 0 -6 7 -3 15 4 8
1 15 -5 15 -10 0 -16 -21 -12 -42 0 -5 -4 -8 -9 -8 -6 0 -10 13 -10 29 0 17
-4 33 -10 36 -5 3 -10 1 -10 -4 0 -20 -16 -11 -35 20 -11 17 -27 41 -35 53 -8
12 -24 36 -35 54 -11 17 -24 32 -28 32 -19 0 -16 -32 7 -69 14 -22 26 -46 26
-53 0 -6 10 -23 23 -37 12 -14 14 -19 5 -12 -16 12 -18 11 -19 -10 -1 -13 -1
-28 0 -32 1 -4 -8 -3 -19 3 -17 9 -19 8 -14 -7 5 -17 5 -17 -6 0 -11 18 -36
25 -25 7 3 -5 1 -10 -5 -10 -11 0 -14 7 -24 53 -6 26 -9 27 -69 28 -50 0 -57
2 -38 10 14 5 31 7 38 4 8 -2 11 0 8 5 -3 6 -23 10 -43 10 -47 0 -74 16 -53
29 12 8 12 12 2 25 -7 9 -17 13 -22 10 -5 -3 -9 -1 -9 5 0 20 22 22 65 5 69
-26 77 4 9 32 -23 9 -39 26 -48 49 -12 27 -21 35 -41 35 -56 0 -11 18 62 25
86 8 123 18 105 29 -8 4 -8 15 -2 31 5 14 8 25 7 26 -1 1 -15 2 -32 4 -58 5
-61 6 -40 14 19 8 18 8 -5 21 l-24 13 24 10 25 10 -25 7 c-14 5 -43 9 -65 10
-49 2 -26 13 47 24 48 7 76 26 39 26 -12 0 -21 4 -21 9 0 5 -17 11 -37 14
-107 16 -131 31 -55 35 173 11 236 30 192 61 -11 7 -20 22 -20 32 0 10 -5 21
-11 25 -20 12 11 22 95 29 77 7 78 7 67 -13 -19 -36 -12 -38 15 -5 20 26 37
35 84 45 48 10 60 16 60 31 0 17 -5 19 -41 13 -41 -7 -41 -6 -35 20 l7 27 -28
-30 c-24 -25 -39 -32 -91 -38 -35 -4 -66 -4 -69 -1 -12 12 -22 104 -22 214 -1
113 -11 140 -32 85 -7 -18 -8 -61 -4 -116 5 -68 4 -88 -7 -92 -7 -2 -105 -13
-217 -22 l-204 -18 -25 -33 -25 -33 54 6 c30 3 109 13 177 21 99 13 126 13
138 3 12 -10 15 -10 12 1 -2 10 13 16 51 22 44 7 57 5 73 -8 34 -32 21 -41
-74 -54 -101 -14 -112 -18 -103 -43 7 -17 75 -20 86 -3 8 10 39 1 39 -11 -1
-24 -24 -32 -117 -38 -91 -7 -103 -6 -103 8 0 9 -9 21 -20 27 -11 6 -20 17
-20 25 0 10 -10 15 -30 15 -18 0 -30 -5 -30 -13 0 -8 -6 -14 -14 -14 -8 0 -12
6 -9 14 3 7 0 13 -6 13 -6 0 -11 -6 -12 -12 0 -10 -2 -10 -6 0 -2 6 -11 12
-19 12 -8 0 -14 6 -14 14 0 10 -9 12 -40 6 -37 -7 -41 -5 -54 21 -12 24 -12
30 0 40 18 15 18 29 0 29 -8 0 -16 6 -19 14 -4 11 11 17 66 27 125 21 138 24
140 34 4 16 -55 22 -172 15 -123 -8 -179 0 -193 24 -5 9 -20 16 -33 16 -14 0
-25 4 -25 10 0 5 7 7 15 4 17 -7 20 7 4 23 -8 8 -1 14 24 22 19 6 45 23 57 36
l23 25 -29 1 c-81 1 -154 8 -194 17 -25 6 -63 15 -85 20 l-40 9 30 7 c17 4 36
9 43 12 6 2 12 -1 12 -6 0 -6 5 -10 10 -10 6 0 10 7 10 15 0 14 -22 20 -60 16
-11 -1 -9 3 5 14 33 27 55 37 55 26 0 -6 8 -15 18 -20 14 -7 18 -6 18 9 0 10
-4 16 -8 14 -4 -3 -15 0 -25 5 -10 5 -27 13 -38 16 l-20 7 20 8 c16 7 14 9
-13 9 -18 1 -31 -3 -28 -8 7 -11 -28 -21 -81 -21 -33 0 -42 4 -42 18 1 9 -2
34 -6 54 -6 28 -3 44 9 63 16 24 16 25 -6 25 -20 1 -18 3 10 15 17 8 32 17 32
20 0 14 -30 35 -50 35 -30 0 -15 18 31 37 62 24 49 37 -31 29 -41 -4 -70 -3
-70 2 0 5 30 12 68 15 37 3 108 10 157 16 50 5 122 12 160 15 76 6 115 12 123
21 3 3 -2 5 -10 5 -9 0 -21 7 -29 16 -11 13 -29 15 -118 9 -59 -4 -108 -8
-111 -10 -3 -2 -99 -6 -215 -10 -115 -4 -213 -9 -217 -11 -5 -3 -8 -1 -8 3 0
5 41 17 90 27 50 10 93 22 96 27 3 5 -1 9 -9 9 -8 0 -20 7 -27 16 -10 11 -24
14 -49 10 -83 -12 -156 -18 -150 -12 3 3 69 15 146 26 l141 21 36 -22 36 -21
-2 23 c-3 21 2 24 55 32 35 5 66 16 78 28 19 19 19 19 -25 19 -67 0 -73 23
-10 34 118 22 173 34 190 44 15 8 23 7 37 -5 16 -15 33 -15 170 -4 83 7 186
14 227 17 246 16 340 32 340 57 0 8 -133 5 -290 -8 -78 -7 -290 -23 -390 -30
-64 -5 -82 -4 -74 5 6 6 22 13 35 15 13 2 85 13 159 25 74 11 191 25 259 31
79 6 137 16 160 27 34 16 35 17 11 21 -24 3 -264 -17 -720 -61 -260 -25 -410
-33 -447 -23 l-28 8 35 8 c19 4 78 13 130 19 261 30 503 71 542 91 22 11 38
22 36 25 -3 2 -85 -5 -184 -16 -168 -20 -253 -31 -484 -66 -138 -20 -139 -20
-107 14 53 56 28 57 -42 2 -31 -25 -65 -42 -90 -46 -37 -6 -44 -3 -73 25 -17
17 -35 31 -40 31 -4 0 -8 4 -8 9 0 6 21 13 48 16 93 12 140 27 163 51 12 13
20 27 16 30 -6 6 -208 -13 -241 -22 -11 -4 -16 -2 -12 4 3 5 18 12 33 15 51
10 128 29 132 33 2 2 -2 10 -9 19 -9 11 -31 15 -77 15 -57 0 -64 2 -53 15 7 8
24 21 38 28 38 18 39 37 2 37 -38 0 -32 15 10 23 35 8 39 24 8 36 -27 11 -23
13 71 36 35 9 65 14 68 11 3 -2 -2 -30 -11 -61 -15 -49 -15 -58 -2 -76 13 -20
15 -18 31 38 31 111 28 106 78 119 26 6 60 24 78 38 35 30 47 32 55 11 11 -29
23 -15 13 15 -11 30 -34 40 -41 19 -4 -12 -127 -33 -136 -24 -9 8 28 55 43 55
9 0 70 14 138 30 81 20 129 37 142 51 l20 21 -37 -4 c-32 -3 -35 -2 -27 13 21
40 0 40 -23 1 -15 -25 -27 -30 -88 -41 l-70 -13 -41 33 c-47 37 -41 46 38 55
26 3 57 9 68 14 11 5 44 16 73 26 29 10 60 26 69 36 20 22 20 22 -102 -1 -55
-11 -102 -18 -104 -15 -3 2 4 11 15 19 26 19 5 19 -42 -1 -22 -9 -59 -22 -84
-29 -42 -11 -48 -10 -80 12 -99 67 -90 63 -113 40 l-20 -20 34 -28 c19 -16 40
-29 47 -29 36 0 -7 -19 -83 -35 -90 -19 -131 -14 -52 6 30 7 52 20 63 37 16
24 16 25 -6 19 -17 -4 -20 -2 -16 10 5 11 2 14 -10 9 -9 -3 -27 -9 -40 -12
-22 -6 -24 -3 -24 34 0 33 4 41 23 46 40 11 51 8 37 -9 -7 -8 -20 -15 -28 -15
-12 0 -13 -3 -4 -12 9 -9 17 -6 37 12 13 12 22 26 20 30 -2 4 26 15 63 25 98
26 182 64 176 80 -4 9 20 19 82 34 49 11 90 18 93 16 4 -4 -2 -18 -34 -77 -5
-10 -13 -18 -17 -18 -5 0 -8 -4 -8 -10 0 -17 42 -11 56 8 7 9 14 28 14 42 1
41 11 70 26 70 8 0 14 5 14 10 0 6 -15 10 -32 10 -47 1 -21 13 85 40 60 16 87
28 87 38 0 11 -8 13 -32 8 -18 -4 -53 -9 -78 -12 l-45 -5 45 24 c25 12 72 37
105 54 33 17 77 37 98 43 21 6 37 18 37 26 0 8 13 20 29 25 16 6 32 16 34 24
3 7 28 16 55 20 30 4 57 14 68 26 9 10 23 19 31 19 7 0 13 5 13 11 0 14 -85 7
-165 -14 -65 -18 -75 -15 -57 13 8 13 8 20 2 20 -6 0 -15 -11 -22 -25 -14 -32
-91 -60 -118 -43 -14 9 -36 7 -95 -7 -75 -17 -188 -17 -252 1 -27 8 -30 32 -5
50 23 18 46 18 38 -1 -3 -8 0 -15 6 -15 12 0 149 41 302 91 49 16 95 29 102
29 6 0 52 12 100 26 49 15 116 32 149 39 137 29 367 85 378 92 7 4 22 6 34 5
12 -2 30 1 39 6 16 9 15 11 -4 21 -16 9 -46 5 -139 -15 -145 -33 -201 -42
-323 -54 -53 -5 -116 -14 -140 -19 -71 -17 -90 -11 -30 9 30 9 75 29 99 43
l44 25 -29 4 c-28 3 -27 4 19 25 26 12 47 27 47 32 0 6 -21 11 -49 11 -64 0
-79 20 -17 21 180 5 180 5 229 33 26 15 47 34 47 41 0 16 38 42 71 48 13 2 26
5 29 6 3 0 17 -7 31 -17z m-1461 -26 c0 -2 -9 -6 -20 -9 -11 -3 -20 -1 -20 4
0 5 9 9 20 9 11 0 20 -2 20 -4z m6260 -66 c0 -5 -2 -10 -4 -10 -3 0 -8 5 -11
10 -3 6 -1 10 4 10 6 0 11 -4 11 -10z m-3822 -36 c37 -14 77 -29 88 -34 12 -5
28 -22 35 -39 8 -17 19 -31 26 -31 14 0 68 -79 59 -87 -2 -3 -27 2 -54 11 -40
14 -56 26 -86 70 -20 29 -36 59 -36 66 0 7 -3 11 -6 8 -3 -4 -19 -2 -36 2 -28
9 -30 8 -24 -14 5 -19 2 -22 -16 -21 -12 1 -24 7 -26 15 -3 7 0 10 7 6 12 -8
15 6 4 17 -7 7 -11 57 -5 57 2 0 34 -12 70 -26z m-91 4 c10 -18 14 -48 6 -48
-10 0 -53 42 -53 52 0 13 38 9 47 -4z m391 -29 c47 -35 50 -39 23 -39 -21 0
-81 46 -81 61 0 16 15 10 58 -22z m3517 21 c-3 -5 -13 -10 -21 -10 -8 0 -14 5
-14 10 0 6 9 10 21 10 11 0 17 -4 14 -10z m-6195 -60 c7 -17 20 -35 29 -40 14
-9 13 -12 -6 -26 -32 -23 -29 -39 12 -64 37 -23 45 -49 20 -70 -8 -7 -25 -30
-37 -51 l-22 -39 -18 29 c-15 23 -16 34 -8 56 6 15 7 31 4 36 -3 6 2 19 12 30
17 19 17 20 -2 13 -16 -6 -17 -5 -6 7 14 15 16 33 3 25 -13 -9 -20 31 -8 43 8
8 7 11 -3 11 -13 0 -13 2 0 10 10 6 11 10 3 10 -7 0 -13 5 -13 11 0 5 5 7 11
3 8 -4 9 0 4 15 -10 33 11 25 25 -9z m455 11 c-8 -13 -35 -15 -35 -2 0 5 8 11
18 13 21 5 26 2 17 -11z m129 10 c3 -5 -8 -11 -26 -15 -34 -7 -44 -3 -33 13 8
13 52 15 59 2z m260 -16 c-17 -8 -71 -21 -120 -30 -49 -9 -97 -19 -106 -21
-10 -3 -18 -2 -18 3 0 5 37 17 83 27 45 10 96 22 112 26 17 5 41 8 55 8 24 0
23 0 -6 -13z m5401 -25 c10 -16 -12 -12 -29 6 -9 8 -16 18 -16 20 0 7 38 -15
45 -26z m-5885 -19 c0 -10 -42 -23 -49 -15 -7 6 20 24 37 24 6 0 12 -4 12 -9z
m6095 -75 c-4 -25 -11 -44 -15 -41 -8 5 -8 10 5 69 9 45 17 23 10 -28z m-6128
27 c2 -6 -5 -13 -17 -16 -12 -3 -20 0 -20 7 0 26 29 33 37 9z m1396 -11 c38
-40 34 -44 -18 -15 -25 13 -45 29 -45 34 0 19 37 8 63 -19z m537 -47 c17 -9
30 -20 30 -26 0 -6 -5 -7 -12 -3 -7 4 -8 3 -4 -4 4 -7 13 -12 20 -12 19 0 63
-37 54 -45 -14 -15 -91 20 -119 54 -16 20 -29 39 -29 43 0 13 29 9 60 -7z
m190 -26 c0 -6 -7 -6 -20 1 -11 6 -20 15 -20 21 0 6 7 6 20 -1 11 -6 20 -15
20 -21z m235 3 c-3 -3 -11 0 -18 7 -9 10 -8 11 6 5 10 -3 15 -9 12 -12z m-154
-11 c13 -11 21 -23 17 -26 -10 -10 -65 14 -72 31 -8 21 27 18 55 -5z m-2411
-20 c0 -6 -4 -13 -10 -16 -5 -3 -10 1 -10 9 0 9 5 16 10 16 6 0 10 -4 10 -9z
m2484 -17 c4 -12 2 -12 -14 -4 -11 6 -20 15 -20 20 0 14 28 1 34 -16z m616
-34 c0 -18 10 -24 31 -22 13 2 41 -37 34 -47 -10 -17 -22 -13 -51 17 -17 18
-25 21 -21 10 9 -25 -18 -23 -43 2 -26 26 -25 34 8 47 39 16 42 15 42 -7z
m530 1 c26 -12 54 -58 41 -66 -27 -16 -121 43 -121 77 0 12 47 5 80 -11z
m-845 -1 c3 -5 -1 -10 -9 -10 -8 0 -18 5 -21 10 -3 6 1 10 9 10 8 0 18 -4 21
-10z m-2929 -42 c1 -14 -6 -38 -17 -54 -10 -16 -19 -23 -19 -16 0 7 7 24 16
37 15 23 15 25 0 25 -9 0 -16 5 -16 10 0 6 5 10 11 10 5 0 7 5 3 11 -4 7 -1
10 6 7 7 -2 14 -15 16 -30z m74 -6 c0 -10 -18 -42 -39 -71 -22 -29 -38 -58
-35 -65 3 -7 -1 -18 -9 -24 -27 -23 -11 30 33 106 23 39 44 72 46 72 2 0 4 -8
4 -18z m2587 -14 c33 -32 41 -48 23 -48 -13 0 -80 60 -80 71 0 18 25 8 57 -23z
m73 -42 c0 -6 -11 1 -25 16 -14 15 -25 30 -25 34 0 4 11 -3 25 -16 14 -13 25
-28 25 -34z m668 23 c15 -24 10 -34 -13 -26 -15 6 -22 47 -7 47 4 0 13 -9 20
-21z m127 -47 l30 -35 -35 6 c-31 7 -100 60 -100 78 0 19 78 -17 105 -49z
m-267 26 c19 -19 14 -30 -8 -18 -11 6 -20 15 -20 20 0 14 14 12 28 -2z m377
-6 c6 -4 16 -15 23 -24 12 -15 11 -17 -10 -14 -40 6 -66 17 -72 32 -4 10 3 14
22 14 15 0 32 -4 37 -8z m210 -4 c14 -6 25 -15 25 -20 0 -5 10 -6 23 -3 16 4
29 0 42 -14 25 -29 11 -38 -29 -18 -44 20 -52 11 -18 -18 15 -13 24 -27 19
-31 -11 -11 -56 17 -63 40 -4 11 -17 29 -30 39 -43 33 -23 50 31 25z m-3438
-18 c35 0 20 -16 -21 -23 -37 -6 -96 11 -96 27 0 5 20 6 46 2 26 -3 58 -6 71
-6z m5973 -20 c0 -11 -4 -20 -10 -20 -5 0 -10 9 -10 20 0 11 5 20 10 20 6 0
10 -9 10 -20z m-2995 -1 c11 -17 -1 -21 -15 -4 -8 9 -8 15 -2 15 6 0 14 -5 17
-11z m82 -17 c7 -8 11 -17 9 -20 -8 -7 -59 22 -64 37 -6 18 38 5 55 -17z m159
-16 c33 -33 43 -56 24 -56 -17 0 -60 23 -60 32 0 5 -7 16 -15 24 -8 9 -15 20
-15 25 0 20 34 7 66 -25z m-3459 8 c-3 -3 -12 -4 -19 -1 -8 3 -5 6 6 6 11 1
17 -2 13 -5z m3392 -13 c20 -16 21 -19 7 -24 -18 -7 -66 18 -66 34 0 15 34 10
59 -10z m-109 -15 c49 -3 62 -13 58 -46 -4 -36 16 -40 20 -5 4 28 23 33 45 10
8 -8 17 -12 20 -8 3 3 31 -7 61 -21 43 -20 61 -36 76 -66 11 -21 24 -41 30
-45 20 -12 10 -26 -10 -15 -11 6 -20 7 -20 1 0 -5 16 -16 35 -25 19 -9 37 -20
39 -25 3 -5 22 -12 42 -16 35 -6 36 -7 20 -23 -16 -16 -18 -16 -31 2 -12 16
-17 17 -30 6 -8 -7 -15 -23 -15 -36 0 -26 -8 -26 -87 -3 -27 9 -103 78 -103
94 0 3 12 2 28 -1 36 -9 20 8 -21 22 -19 6 -52 35 -82 72 -27 33 -58 61 -67
61 -12 1 -15 -4 -12 -14 4 -8 2 -15 -4 -15 -10 0 -82 99 -82 112 0 4 12 3 28
-3 15 -6 43 -12 62 -13z m292 -13 c34 -32 35 -43 6 -43 -25 1 -42 12 -72 48
l-19 22 28 0 c18 0 40 -11 57 -27z m-1208 -59 c25 -10 19 -23 -9 -20 -34 4
-58 26 -28 26 12 0 28 -3 37 -6z m736 -19 c7 -9 10 -18 7 -22 -8 -7 -37 15
-37 28 0 14 16 11 30 -6z m-80 -26 c0 -12 -43 6 -48 20 -3 9 2 9 22 0 14 -7
26 -16 26 -20z m-467 4 c4 -2 7 -8 7 -13 0 -9 -74 11 -87 24 -8 7 64 -2 80
-11z m1060 -5 c13 -13 29 -23 36 -23 7 0 24 -19 37 -42 18 -33 20 -43 9 -43
-29 0 -81 32 -103 64 -39 57 -23 88 21 44z m-1199 -4 c20 -3 36 -10 36 -15 0
-5 -12 -6 -27 -3 -43 10 -73 23 -73 30 0 3 6 4 14 1 8 -3 31 -9 50 -13z m871
-132 c-9 -9 -100 31 -117 52 -22 26 -23 37 -2 29 12 -4 15 0 14 18 -1 13 -2
28 -1 32 1 5 26 -22 56 -59 31 -37 53 -69 50 -72z m-529 70 l42 -48 -28 4
c-16 2 -46 23 -71 48 l-43 44 29 0 c23 0 39 -11 71 -48z m315 22 c7 -8 9 -18
5 -21 -9 -9 -58 17 -63 33 -5 16 43 5 58 -12z m-483 1 c12 -3 22 -11 22 -16 0
-6 -9 -8 -20 -5 -11 3 -29 9 -40 12 -11 3 -20 10 -20 15 0 6 8 8 18 5 9 -2 27
-7 40 -11z m231 -32 c33 -40 38 -53 20 -53 -12 0 -19 8 -60 63 -33 43 3 35 40
-10z m955 -7 c41 -50 43 -56 16 -49 -18 5 -80 72 -80 87 0 20 34 0 64 -38z
m-790 -7 c40 -12 80 -33 93 -47 13 -14 26 -22 30 -18 4 4 1 11 -7 16 -12 8
-11 10 7 10 14 0 41 -22 78 -62 53 -59 55 -63 34 -66 -18 -3 -33 7 -62 42 -22
25 -43 46 -48 46 -11 0 11 -42 29 -53 6 -4 12 -12 12 -17 0 -23 -26 -7 -70 42
-37 41 -50 50 -61 42 -9 -7 -32 -7 -66 -1 -44 7 -57 15 -83 48 -51 64 -35 67
114 18z m-616 12 c20 -10 46 -28 56 -40 19 -21 19 -21 -10 -21 -22 0 -41 11
-69 40 -43 44 -35 51 23 21z m966 5 c31 -13 105 -82 106 -98 0 -9 -36 -2 -74
14 -28 11 -95 75 -96 91 0 11 27 8 64 -7z m2879 -1 c-3 -9 -8 -14 -10 -11 -3
3 -2 9 2 15 9 16 15 13 8 -4z m-3883 -40 c18 -19 31 -37 28 -40 -7 -7 -56 32
-68 56 -17 30 3 22 40 -16z m1620 -71 c0 -25 -20 -14 -50 28 -45 61 -37 82 10
29 22 -24 40 -50 40 -57z m-1414 60 c78 -22 100 -74 32 -74 -20 0 -43 11 -67
32 -70 61 -62 70 35 42z m153 -35 c40 -12 79 -55 64 -70 -13 -13 -42 -1 -87
35 -55 45 -47 56 23 35z m604 -6 c16 -3 40 -22 58 -44 30 -38 78 -56 65 -24
-3 8 -8 21 -11 28 -4 10 2 13 27 9 39 -5 71 -30 63 -49 -2 -8 -1 -11 5 -8 13
8 48 -33 55 -66 4 -16 11 -32 17 -35 16 -10 -1 56 -24 94 -23 37 -19 38 64 16
33 -8 70 -13 82 -11 18 4 17 6 -11 18 -40 16 -42 34 -6 44 30 7 35 3 87 -81
22 -35 26 -48 16 -54 -9 -6 -8 -9 7 -14 29 -9 124 -129 111 -141 -2 -2 -20 3
-41 10 -20 7 -39 9 -42 5 -3 -4 22 -16 54 -26 50 -15 64 -24 91 -62 l31 -44
-30 4 c-17 3 -31 2 -31 -2 0 -13 49 -52 58 -46 5 3 9 -8 9 -24 0 -17 -2 -30
-5 -30 -3 0 -40 10 -84 22 -86 23 -83 20 -63 86 5 13 3 22 -3 22 -6 0 -14 -9
-17 -20 -3 -11 -10 -20 -15 -20 -11 0 -80 84 -80 97 0 5 -16 24 -35 43 -19 19
-35 31 -35 27 0 -15 39 -84 54 -96 26 -21 9 -30 -31 -16 -41 14 -62 36 -177
183 -27 34 -53 62 -57 62 -5 0 -8 3 -8 8 3 16 -2 23 -11 17 -5 -3 13 -35 40
-71 54 -70 57 -79 36 -87 -16 -6 -19 -76 -4 -94 9 -11 -5 -12 -54 -4 -4 0 -17
11 -29 24 l-22 22 7 -28 7 -29 -43 7 c-43 8 -65 25 -106 82 -20 28 -102 71
-102 53 0 -5 5 -12 10 -15 15 -9 12 -25 -4 -25 -19 0 -72 68 -97 125 -11 25
-28 49 -37 52 -21 8 -52 34 -52 44 0 4 27 -3 60 -16 33 -13 60 -21 60 -17 0 3
18 -12 40 -33 39 -38 57 -40 23 -3 -15 17 -15 18 7 18 28 0 90 -66 90 -95 0
-20 29 -70 30 -51 0 5 7 3 15 -4 12 -10 15 -10 15 3 0 9 -9 21 -20 27 -11 6
-20 19 -20 28 0 10 -7 28 -16 40 -9 13 -13 26 -10 29 9 9 53 -24 118 -89 33
-33 62 -58 64 -55 6 6 -78 120 -109 146 -15 13 -34 38 -41 56 -8 18 -24 43
-35 54 -26 26 -28 46 -3 36 9 -3 29 -9 45 -12z m2877 -3 c-11 -7 -11 -10 -2
-10 7 0 10 -5 7 -10 -5 -8 -11 -7 -21 1 -17 14 -9 29 14 29 15 0 15 -2 2 -10z
m-3153 -14 c28 -1 84 -36 57 -36 -21 0 -119 32 -129 42 -7 7 -2 8 15 2 14 -4
39 -8 57 -8z m760 0 c14 -13 -7 -18 -23 -5 -16 13 -16 12 -5 -8 6 -13 18 -23
25 -23 7 0 26 -18 41 -41 31 -44 59 -64 76 -53 6 4 1 11 -12 18 -26 13 -85 94
-75 103 3 4 21 -2 38 -11 37 -21 92 -92 78 -101 -6 -3 2 -17 18 -30 l27 -23
-30 5 c-17 3 -33 11 -37 17 -6 8 -10 8 -15 0 -13 -18 -66 3 -85 33 -29 47 -42
67 -60 92 -10 13 -18 27 -18 31 0 9 47 6 57 -4z m-814 -68 c65 -78 127 -161
127 -170 0 -25 -34 -1 -67 48 -21 31 -52 73 -68 93 -58 68 -59 71 -42 71 8 0
31 -19 50 -42z m3212 12 c-3 -5 -10 -10 -16 -10 -5 0 -9 5 -9 10 0 6 7 10 16
10 8 0 12 -4 9 -10z m-3499 -25 c48 -11 74 -23 83 -37 18 -28 5 -35 -30 -16
-22 13 -36 15 -55 8 -38 -15 -97 6 -124 43 l-23 30 39 -6 c22 -4 71 -14 110
-22z m3491 -27 c-3 -8 -6 -5 -6 6 -1 11 2 17 5 13 3 -3 4 -12 1 -19z m-6317
-27 c0 -16 -6 -31 -15 -35 -11 -4 -15 2 -15 23 0 15 3 31 7 34 14 15 23 6 23
-22z m3114 -17 c22 -21 39 -54 32 -61 -8 -9 -35 17 -52 49 -16 31 -5 37 20 12z
m-3177 -14 c1 -11 -2 -18 -8 -15 -11 7 -12 35 -1 35 4 0 8 -9 9 -20z m4316
-13 c35 -15 64 -44 53 -54 -8 -8 -85 18 -102 35 -32 32 -7 42 49 19z m-185
-16 c11 -6 34 -11 51 -11 33 0 46 -13 37 -36 -5 -12 -10 -13 -27 -3 -12 6 -19
7 -15 1 3 -6 0 -12 -6 -15 -10 -3 -10 -9 -1 -25 22 -36 -4 -33 -33 4 -88 109
-85 102 -50 99 13 -2 33 -8 44 -14z m1602 -26 c34 -18 78 -65 59 -65 -27 1
-103 45 -118 69 -15 23 -15 23 9 16 14 -4 36 -13 50 -20z m-5350 -24 c0 -5 -8
-12 -17 -14 -12 -3 -7 -7 15 -12 22 -5 31 -12 28 -21 -3 -8 0 -14 7 -14 7 0
-13 -13 -43 -28 -66 -33 -80 -58 -26 -48 32 6 36 5 36 -14 0 -11 -1 -20 -2
-20 -2 -1 -47 -9 -100 -19 -54 -9 -98 -14 -98 -10 0 4 15 20 33 34 l32 27 -69
-6 c-45 -5 -73 -3 -82 5 -11 9 -14 8 -14 -5 0 -9 -4 -16 -9 -16 -5 0 -24 -3
-42 -6 l-34 -6 40 28 c40 29 40 29 13 32 -14 2 -32 11 -39 20 -8 9 -9 14 -5
10 5 -4 14 -4 20 1 6 4 26 13 45 19 27 9 37 9 54 -3 21 -15 77 -21 77 -8 0 3
-7 14 -16 24 -15 16 -11 18 58 33 40 8 87 17 103 19 17 2 31 5 33 6 1 0 2 -3
2 -8z m-377 -8 c-7 -2 -19 -2 -25 0 -7 3 -2 5 12 5 14 0 19 -2 13 -5z m5301
-14 c34 -12 67 -27 75 -33 7 -6 19 -11 25 -12 6 0 17 -2 24 -2 12 -2 72 -88
72 -104 0 -4 -7 -8 -16 -8 -10 0 -14 6 -11 14 7 17 -49 60 -59 45 -3 -6 3 -17
14 -25 11 -7 29 -30 41 -50 l22 -37 -36 6 c-31 5 -35 4 -25 -8 7 -8 20 -15 29
-15 32 0 58 -29 129 -147 40 -66 72 -123 72 -127 0 -14 -27 9 -75 64 -27 30
-50 54 -52 52 -7 -6 -18 3 -41 33 l-24 30 7 -28 c10 -39 -7 -34 -50 16 -48 54
-73 106 -58 115 18 11 3 58 -28 88 -23 22 -29 24 -29 11 0 -26 -16 -20 -40 14
-26 35 -20 47 15 31 15 -7 25 -8 25 -2 0 6 -6 10 -13 10 -8 0 -24 9 -36 19
-13 11 -26 21 -31 23 -4 2 -11 13 -14 26 -9 29 8 29 88 1z m-1504 -71 c0 -10
-31 2 -51 19 -9 7 -19 10 -22 6 -4 -3 -7 5 -7 19 0 13 3 28 7 32 8 7 73 -61
73 -76z m464 49 c34 -44 33 -52 -4 -30 -16 9 -30 20 -30 24 0 4 -3 14 -6 23
-11 28 14 17 40 -17z m103 8 c21 -9 44 -24 51 -35 11 -18 10 -20 -16 -20 -26
0 -57 23 -76 58 -9 16 -4 15 41 -3z m-1482 -15 c27 -30 12 -34 -15 -5 -13 14
-19 25 -13 25 5 0 18 -9 28 -20z m2947 -43 c21 -27 18 -30 -18 -17 -31 12 -74
48 -74 62 0 14 74 -22 92 -45z m-2432 16 c13 -13 12 -14 -10 -8 -14 4 -32 14
-40 22 -13 13 -12 14 10 8 14 -4 32 -14 40 -22z m1800 6 c24 -9 67 -76 56 -87
-3 -2 -21 3 -41 12 -48 23 -102 109 -57 91 9 -4 28 -11 42 -16z m-2376 5 c9
-3 16 -10 16 -15 0 -14 -34 -11 -56 6 -19 14 -19 14 3 15 12 0 28 -3 37 -6z
m1400 -39 c20 -9 40 -23 43 -33 4 -9 24 -39 45 -65 42 -55 46 -67 20 -67 -20
0 -64 44 -103 100 -13 19 -29 41 -36 48 -12 13 -18 32 -9 32 2 0 20 -7 40 -15z
m107 -26 c11 -11 27 -18 35 -15 8 3 14 2 14 -2 1 -12 71 -84 77 -78 3 3 -5 21
-17 40 l-22 36 21 0 c13 0 32 -16 51 -42 33 -45 41 -94 14 -84 -9 3 -37 6 -63
6 -47 0 -49 2 -105 67 -31 37 -56 73 -56 80 0 20 28 15 51 -8z m734 -22 c22
-31 18 -40 -12 -32 -29 6 -62 40 -63 62 0 18 57 -5 75 -30z m-195 -26 c15 -28
13 -33 -10 -21 -11 6 -20 17 -20 25 0 21 17 18 30 -4z m1029 -27 c3 -17 0 -16
-23 5 -14 14 -26 29 -26 34 0 17 45 -20 49 -39z m-1249 15 c52 -11 102 -27
110 -36 14 -14 9 -15 -44 -9 -32 4 -66 11 -76 16 -10 6 -33 10 -50 10 -35 0
-70 15 -70 30 0 14 25 12 130 -11z m466 -4 c-3 -9 -11 -13 -16 -10 -8 5 -7 11
1 21 14 18 24 11 15 -11z m188 -14 c25 -22 58 -89 47 -96 -5 -3 -12 -1 -15 4
-3 4 -18 11 -33 15 -19 4 -38 22 -60 55 -17 27 -29 51 -27 54 8 8 66 -13 88
-32z m656 -6 c7 -8 8 -15 2 -15 -5 0 -15 7 -22 15 -7 8 -8 15 -2 15 5 0 15 -7
22 -15z m-419 -15 c23 -19 23 -19 4 -20 -21 0 -45 17 -45 32 0 14 17 9 41 -12z
m118 -26 c12 -15 21 -30 21 -34 0 -4 14 -22 30 -40 17 -18 29 -34 28 -35 -2
-2 -18 0 -35 2 -26 4 -39 15 -63 54 -41 66 -25 109 19 53z m-2179 -14 c25 -5
75 -14 113 -21 45 -7 67 -16 67 -25 0 -16 -18 -17 -75 -4 -22 4 -76 15 -120
24 -118 23 -125 25 -125 37 0 10 51 7 140 -11z m395 2 c-3 -3 -11 0 -18 7 -9
10 -8 11 6 5 10 -3 15 -9 12 -12z m1917 -19 c38 -36 35 -43 -9 -30 -48 14 -46
12 -38 36 8 27 13 26 47 -6z m138 12 c16 -19 0 -19 -26 0 -16 12 -16 14 -3 15
9 0 22 -7 29 -15z m-899 -8 c9 -7 21 -22 28 -35 12 -22 11 -23 -14 -20 -19 2
-31 12 -40 36 -15 35 -5 43 26 19z m-1061 -7 c0 -5 -2 -10 -4 -10 -3 0 -8 5
-11 10 -3 6 -1 10 4 10 6 0 11 -4 11 -10z m462 -4 c36 1 51 -3 65 -19 18 -19
18 -20 -17 -13 -19 3 -61 9 -92 12 -37 4 -58 11 -58 20 0 9 8 10 28 5 15 -4
48 -6 74 -5z m1441 -10 c18 -8 49 -20 70 -26 35 -11 57 -33 45 -45 -11 -12
-128 38 -143 61 -18 28 -14 29 28 10z m-1995 -35 c3 -27 0 -32 -15 -29 -19 3
-28 30 -19 54 10 26 31 10 34 -25z m679 24 c9 -25 -4 -29 -17 -6 -7 15 -7 21
0 21 6 0 13 -7 17 -15z m1518 -11 c11 -8 17 -14 13 -14 -11 0 -78 30 -78 36 0
8 42 -6 65 -22z m-2616 -9 c9 -9 21 -11 35 -6 12 5 32 4 46 -2 14 -6 36 -11
50 -12 57 -5 163 -24 170 -32 13 -14 23 -56 12 -49 -6 3 -13 2 -16 -3 -4 -5 3
-12 14 -16 11 -3 20 -11 20 -16 0 -6 5 -7 10 -4 6 4 8 10 6 14 -3 4 13 8 35 8
35 2 39 -1 39 -22 0 -22 35 -54 46 -42 3 2 5 25 6 51 0 39 4 46 21 46 18 0 19
-4 13 -52 -3 -29 -6 -63 -6 -74 0 -12 -7 -25 -15 -28 -21 -8 -115 13 -115 25
0 6 -5 7 -11 4 -16 -10 -443 54 -469 70 -6 4 -10 42 -10 87 l0 80 53 -7 c28
-4 58 -13 66 -20z m2141 -19 c0 -5 -7 -3 -15 4 -8 7 -15 20 -15 28 0 13 3 12
15 -4 8 -10 15 -23 15 -28z m219 5 c36 -19 78 -67 68 -78 -12 -11 -52 11 -84
46 -50 54 -46 63 16 32z m-1849 -11 c0 -13 -7 -20 -20 -20 -13 0 -20 7 -20 20
0 13 7 20 20 20 13 0 20 -7 20 -20z m2231 -7 c13 -16 12 -17 -3 -4 -10 7 -18
15 -18 17 0 8 8 3 21 -13z m-2381 -33 c0 -5 -4 -10 -10 -10 -5 0 -10 5 -10 10
0 6 5 10 10 10 6 0 10 -4 10 -10z m1260 -11 c0 -5 -4 -9 -10 -9 -5 0 -10 7
-10 16 0 8 5 12 10 9 6 -3 10 -10 10 -16z m-1200 2 c0 -19 -22 -23 -38 -7 -15
15 -14 16 11 16 15 0 27 -4 27 -9z m2090 -1 c0 -5 -2 -10 -4 -10 -3 0 -8 5
-11 10 -3 6 -1 10 4 10 6 0 11 -4 11 -10z m190 -5 c7 -9 11 -17 8 -20 -2 -2
-12 4 -21 15 -9 11 -13 20 -8 20 5 0 14 -7 21 -15z m-662 -11 c12 -8 22 -19
22 -24 0 -14 -48 10 -54 26 -7 18 4 18 32 -2z m293 -20 l24 -26 -35 7 c-44 9
-50 13 -50 31 0 23 35 16 61 -12z m349 -16 c0 -14 -19 1 -31 25 -12 22 -12 22
10 3 11 -11 21 -23 21 -28z m-90 22 c8 -5 12 -11 9 -14 -3 -3 -14 1 -25 9 -21
16 -8 20 16 5z m-980 -21 c0 -11 -4 -18 -10 -14 -5 3 -7 12 -3 20 7 21 13 19
13 -6z m950 -10 l25 -20 -32 16 c-18 8 -33 18 -33 20 0 10 16 4 40 -16z m212
-23 c10 -19 8 -18 -16 3 -14 14 -26 29 -26 34 0 13 29 -12 42 -37z m-881 2
c27 -8 39 -17 39 -29 0 -15 -6 -18 -32 -13 -53 9 -58 12 -58 34 0 23 1 24 51
8z m574 2 c3 -5 2 -10 -4 -10 -5 0 -13 5 -16 10 -3 6 -2 10 4 10 5 0 13 -4 16
-10z m280 -39 c-6 -5 -25 10 -25 20 0 5 6 4 14 -3 8 -7 12 -15 11 -17z m-2759
-11 c105 -15 313 -49 342 -55 17 -4 22 -12 22 -35 0 -36 -19 -39 -96 -15 -27
8 -60 15 -74 15 -14 0 -50 6 -80 14 -30 7 -75 16 -100 19 -37 4 -41 3 -22 -6
12 -5 22 -14 22 -19 0 -4 7 -8 16 -8 9 0 14 -6 11 -12 -5 -15 -76 -13 -91 2
-5 5 -18 10 -27 10 -12 0 -16 6 -12 20 3 11 0 20 -6 20 -17 0 -31 43 -18 58 6
7 15 11 22 8 6 -2 47 -9 91 -16z m2009 10 c3 -5 1 -10 -4 -10 -6 0 -11 5 -11
10 0 6 2 10 4 10 3 0 8 -4 11 -10z m49 -6 c23 -9 20 -23 -4 -17 -11 3 -20 9
-20 14 0 11 3 11 24 3z m-116 -30 c16 -5 22 -14 22 -35 0 -36 18 -47 22 -14 3
23 24 38 22 15 -1 -5 -2 -28 -2 -51 -2 -37 -4 -40 -24 -33 -13 4 -48 12 -78
19 -52 10 -55 12 -58 44 -2 18 -1 39 2 47 6 15 53 18 94 8z m136 -33 c3 -5 3
-30 0 -55 -6 -41 -10 -47 -28 -44 -38 5 -34 108 4 108 10 0 21 -4 24 -9z
m-5411 -35 l38 -34 -28 -6 c-15 -3 -50 -7 -78 -10 l-50 -5 38 11 c20 6 37 15
37 18 0 4 -19 13 -42 20 l-43 12 35 13 c50 18 51 18 93 -19z m5517 18 c0 -9 9
-18 20 -21 11 -3 20 -12 20 -20 0 -8 -4 -12 -9 -8 -5 3 -12 1 -16 -4 -3 -6 3
-15 14 -21 29 -15 16 -42 -18 -38 -23 3 -26 8 -29 51 -5 71 -22 62 -34 -18 -6
-36 -23 -21 -26 24 -5 61 2 71 43 71 25 0 35 -4 35 -16z m184 -60 c25 -10 19
-22 -9 -16 -14 2 -22 8 -19 13 6 11 8 11 28 3z m-2404 -24 c78 -10 155 -29
148 -35 -2 -3 -44 2 -94 10 -49 8 -110 17 -136 20 -27 3 -48 10 -48 15 0 5 12
7 28 5 15 -3 61 -9 102 -15z m1904 4 c25 -10 19 -50 -10 -69 -14 -9 -27 -15
-29 -13 -7 7 8 88 15 88 5 0 15 -3 24 -6z m406 -24 c0 -11 -4 -20 -9 -20 -5 0
-7 9 -4 20 3 11 7 20 9 20 2 0 4 -9 4 -20z m-351 -16 c-14 -18 -24 -11 -15 11
3 9 11 13 16 10 8 -5 7 -11 -1 -21z m481 -4 c0 -12 -33 -30 -54 -30 -9 0 -16
9 -16 20 0 16 7 20 35 20 19 0 35 -4 35 -10z m-329 -40 c5 -34 8 -32 23 14 5
14 10 16 18 8 15 -15 1 -122 -16 -122 -7 0 -16 3 -20 7 -4 4 -13 8 -19 9 -7 0
-20 2 -29 2 -13 2 -18 11 -18 36 0 19 5 38 10 41 6 4 8 16 4 27 -5 16 -2 19
18 16 18 -2 24 -11 29 -38z m-76 -21 c0 -44 0 -44 -32 -41 -42 3 -42 -4 2 -22
32 -14 34 -17 28 -48 -3 -18 -7 -35 -9 -37 -5 -6 -164 31 -169 39 -2 3 -1 28
3 56 6 38 12 49 27 52 21 3 38 10 95 35 19 9 40 14 45 13 6 -1 10 -23 10 -47z
m204 12 c13 -13 28 -17 47 -14 27 4 28 3 10 -11 -23 -18 -13 -36 16 -28 21 5
21 4 14 -78 -4 -47 -9 -86 -11 -88 -2 -3 -33 1 -70 9 -62 12 -65 14 -65 42 0
22 4 27 18 23 57 -17 72 -18 72 -4 0 8 -18 22 -41 31 l-41 16 3 53 c3 75 12
85 48 49z m338 -47 c-3 -3 -12 -4 -19 -1 -8 3 -5 6 6 6 11 1 17 -2 13 -5z
m-197 -12 c0 -5 25 -16 55 -26 32 -10 53 -21 49 -27 -3 -6 -15 -9 -25 -6 -28
7 -24 -18 7 -40 l25 -19 -39 4 c-46 5 -63 -12 -30 -29 13 -7 25 -16 28 -20 3
-5 23 -15 45 -22 47 -16 58 -37 20 -37 -14 0 -24 4 -21 9 4 5 -3 7 -13 4 -11
-3 -39 4 -63 15 -24 11 -51 23 -60 26 -15 5 -17 14 -12 68 7 84 13 108 24 108
6 0 10 -4 10 -8z m-285 -77 c0 -23 -5 -31 -22 -33 -20 -3 -23 1 -23 33 0 32 3
36 23 33 17 -2 22 -10 22 -33z m53 -14 c5 -29 -15 -52 -27 -33 -11 18 -1 64
13 59 6 -2 13 -14 14 -26z m-234 -17 c20 -3 39 -11 43 -17 4 -6 -7 -7 -33 -3
-59 11 -74 16 -74 28 0 5 6 8 14 5 8 -3 31 -9 50 -13z m21 -54 c67 -14 59 -22
-31 -34 -49 -6 -52 -5 -56 19 -6 27 0 38 17 31 6 -2 37 -9 70 -16z m672 -55
c0 -36 -4 -60 -8 -53 -4 6 -5 16 -2 21 3 4 -1 8 -8 6 -28 -3 -39 1 -39 16 0 8
8 15 19 15 13 0 20 9 25 30 9 48 14 35 13 -35z m-527 -49 c-3 -36 -8 -67 -11
-70 -3 -3 -28 -2 -55 3 -52 10 -69 7 -58 -11 5 -8 -9 -9 -45 -4 -73 10 -84 15
-77 40 3 11 6 33 6 47 0 24 4 27 58 33 31 3 77 10 102 15 89 17 86 19 80 -53z
m52 -24 c-3 -42 -8 -62 -15 -59 -12 4 -11 122 0 141 12 18 19 -22 15 -82z
m103 53 l30 -13 -40 5 c-22 3 -44 10 -49 14 -15 14 25 10 59 -6z m-5092 -12
c-7 -2 -19 -2 -25 0 -7 3 -2 5 12 5 14 0 19 -2 13 -5z m5066 -27 c18 -10 25
-23 27 -50 2 -36 1 -37 -29 -34 -30 3 -32 5 -35 51 -3 50 0 53 37 33z m-335
-111 c8 -8 21 -15 28 -15 8 0 23 -7 34 -15 18 -15 16 -15 -26 -10 -69 10 -80
15 -80 36 0 23 23 25 44 4z m-4694 -5 c0 -5 -7 -7 -15 -4 -8 4 -15 8 -15 10 0
2 7 4 15 4 8 0 15 -4 15 -10z m-82 -16 c18 -8 32 -19 32 -23 0 -11 -69 21 -70
32 0 10 2 9 38 -9z m52 6 c13 -9 13 -10 0 -9 -8 0 -24 4 -35 9 l-20 9 20 0
c11 0 27 -4 35 -9z m4754 -67 c27 -8 7 -21 -39 -25 -36 -3 -40 0 -43 20 -3 22
-1 23 30 17 18 -3 41 -9 52 -12z m0 -94 c-25 -27 -13 -41 57 -66 64 -22 64
-22 17 -17 -61 8 -91 -2 -85 -27 5 -18 1 -20 -41 -17 -45 3 -47 4 -46 33 1 17
6 50 11 75 8 41 11 45 43 51 46 7 66 -7 44 -32z m-4414 -211 c0 -5 -16 -8 -35
-8 -19 0 -35 3 -35 8 0 4 16 7 35 7 19 0 35 -3 35 -7z m-81 -25 l13 -28 -21
22 c-23 24 -26 33 -13 33 5 0 14 -12 21 -27z m4335 11 c22 -9 20 -34 -3 -34
-30 0 -51 11 -51 26 0 15 27 18 54 8z m220 -44 c144 -27 262 -57 254 -65 -7
-7 -183 16 -295 40 -67 14 -124 25 -127 25 -3 0 -6 7 -6 15 0 19 -14 20 174
-15z m-230 -50 c37 -14 32 -32 -6 -28 -22 2 -34 9 -36 21 -4 19 6 21 42 7z
m136 -31 c24 -7 24 -7 -5 -8 -39 -1 -75 9 -75 20 0 9 23 5 80 -12z m-4094 -54
c-15 -14 -30 -25 -33 -25 -4 0 4 11 17 25 13 14 28 25 33 25 6 0 -2 -11 -17
-25z m3954 5 c12 -8 11 -10 -7 -10 -12 0 -25 5 -28 10 -8 13 15 13 35 0z m19
-76 c6 -6 -1 -11 -31 -18 -24 -5 -28 -3 -28 15 0 18 4 20 27 14 16 -4 30 -9
32 -11z m117 -15 c32 -6 64 -14 69 -19 6 -4 27 -10 47 -14 27 -5 36 -11 31
-21 -3 -11 2 -15 18 -15 12 0 20 -3 16 -6 -10 -10 -58 5 -52 16 3 6 4 10 1 10
-2 0 -13 3 -23 7 -16 6 -17 5 -4 -11 14 -16 12 -17 -15 -14 -18 2 -29 9 -29
18 0 11 -21 19 -72 29 -40 8 -73 19 -73 23 0 11 15 10 86 -3z m203 -68 c0 -10
-2 -11 -6 -3 -2 6 -11 12 -19 12 -9 0 -13 4 -9 10 9 14 35 0 34 -19z m81 -7
c0 -18 -26 -18 -33 0 -3 8 -3 16 0 19 9 10 33 -5 33 -19z m-4429 -25 c-8 -22
-9 -22 -9 9 1 19 5 29 10 24 5 -5 5 -19 -1 -33z m199 31 c0 -5 -5 -10 -11 -10
-5 0 -7 5 -4 10 3 6 8 10 11 10 2 0 4 -4 4 -10z m70 0 c0 -5 -5 -10 -11 -10
-5 0 -7 5 -4 10 3 6 8 10 11 10 2 0 4 -4 4 -10z m4058 -46 c13 -3 22 -12 22
-23 0 -16 -5 -17 -53 -10 -29 5 -70 17 -92 28 l-40 19 70 -5 c39 -2 80 -6 93
-9z m102 -24 c0 -11 -6 -20 -14 -20 -7 0 -16 9 -19 20 -4 15 0 20 14 20 12 0
19 -7 19 -20z m219 -16 c2 -2 -12 -4 -32 -4 -20 0 -38 -4 -41 -9 -8 -13 -59 2
-64 18 -3 10 10 12 64 6 38 -3 70 -8 73 -11z m-1054 -14 c3 -5 -3 -10 -15 -10
-12 0 -18 5 -15 10 3 6 10 10 15 10 5 0 12 -4 15 -10z m-3172 -18 c-21 -22
-26 -21 -17 2 3 9 12 16 20 16 11 0 10 -4 -3 -18z m-26 -58 c-3 -3 -12 -4 -19
-1 -8 3 -5 6 6 6 11 1 17 -2 13 -5z m3318 -43 c26 -4 41 -12 43 -24 3 -15 -6
-17 -70 -19 -40 0 -80 0 -88 1 -8 1 -41 5 -72 8 -32 3 -58 9 -58 14 0 4 21 14
48 23 45 14 99 13 197 -3z m-305 -31 c0 -5 -10 -10 -22 -10 -19 0 -20 2 -8 10
19 13 30 13 30 0z m-74 -22 c4 -6 2 -14 -4 -16 -7 -2 -12 -10 -12 -18 0 -19
-9 -18 -33 4 -20 17 -20 17 -2 -10 9 -16 21 -28 26 -28 12 0 11 -27 -1 -35 -6
-3 -7 1 -4 9 7 19 0 20 -27 6 -13 -7 -19 -7 -19 0 0 5 -5 10 -11 10 -6 0 -9
-7 -5 -15 3 -8 3 -22 0 -30 -12 -31 -19 -13 -19 48 0 62 0 62 35 74 46 15 67
16 76 1z m128 -43 c-4 -8 -11 -15 -16 -15 -6 0 -5 6 2 15 7 8 14 15 16 15 2 0
1 -7 -2 -15z m-664 -31 c0 -23 -3 -25 -32 -22 -25 2 -34 8 -36 26 -3 19 1 22
32 22 32 0 36 -3 36 -26z m93 4 c7 -22 -4 -38 -28 -38 -36 0 -55 11 -55 31 0
15 7 19 39 19 23 0 41 -5 44 -12z m70 -19 c-7 -26 -53 -26 -53 -1 0 25 6 30
34 25 17 -4 22 -10 19 -24z m369 -38 c-13 -23 -20 -27 -30 -18 -11 9 -9 14 10
29 33 25 39 22 20 -11z m-542 -7 c0 -2 -11 -4 -25 -4 -14 0 -25 4 -25 9 0 4
11 6 25 3 14 -2 25 -6 25 -8z m-2 -36 c-7 -20 -58 -23 -58 -4 0 11 10 16 31
16 20 0 29 -4 27 -12z m52 2 c0 -5 -4 -10 -10 -10 -5 0 -10 5 -10 10 0 6 5 10
10 10 6 0 10 -4 10 -10z m528 -54 c-7 -6 -10 -7 -5 -2 4 6 8 21 8 36 2 25 2
25 6 1 3 -13 -1 -29 -9 -35z m-3028 30 c0 -3 -4 -8 -10 -11 -5 -3 -10 -1 -10
4 0 6 5 11 10 11 6 0 10 -2 10 -4z m103 -13 c-7 -2 -19 -2 -25 0 -7 3 -2 5 12
5 14 0 19 -2 13 -5z m-3 -19 c0 -8 -19 -13 -24 -6 -3 5 1 9 9 9 8 0 15 -2 15
-3z m3036 -52 c-11 -10 -15 4 -8 28 l7 25 3 -23 c2 -13 1 -26 -2 -30z m-136
-16 c0 -2 -7 -7 -16 -10 -8 -3 -12 -2 -9 4 6 10 25 14 25 6z m-2870 -26 c0 -5
-9 -10 -21 -10 -11 0 -17 5 -14 10 3 6 13 10 21 10 8 0 14 -4 14 -10z m320
-105 c0 -5 -5 -3 -10 5 -5 8 -10 20 -10 25 0 6 5 3 10 -5 5 -8 10 -19 10 -25z
m-35 5 c3 -5 1 -10 -4 -10 -6 0 -11 5 -11 10 0 6 2 10 4 10 3 0 8 -4 11 -10z
m532 -12 c-3 -8 -6 -5 -6 6 -1 11 2 17 5 13 3 -3 4 -12 1 -19z m-725 4 c-13
-4 -23 -11 -22 -17 1 -5 -3 -11 -9 -13 -6 -2 -11 1 -11 8 0 6 -4 8 -10 5 -16
-10 -12 -25 8 -25 16 -1 16 -1 -1 -11 -20 -12 -40 -3 -33 16 2 7 -1 12 -7 12
-58 -1 -80 18 -29 26 45 7 139 6 114 -1z m514 -11 c0 -11 -5 -17 -13 -14 -10
4 -11 9 -2 19 15 18 15 18 15 -5z m1544 -1 c0 -18 -7 -20 -60 -20 -33 0 -60 2
-60 4 0 27 16 36 66 36 47 0 54 -2 54 -20z m-2021 -24 c9 -11 8 -14 -6 -18
-10 -2 -26 -2 -36 0 -18 4 -18 4 0 18 23 17 28 17 42 0z m1444 -3 c-22 -8 -15
-36 7 -30 28 7 25 -14 -5 -43 -20 -18 -28 -21 -37 -12 -9 9 -8 12 5 12 9 0 17
5 17 10 0 14 -21 8 -44 -12 -27 -24 -46 -23 -102 7 -26 14 -56 25 -66 25 -22
0 -20 22 3 28 11 3 11 1 -1 -8 -12 -8 -8 -10 18 -6 23 3 32 0 32 -10 0 -8 5
-14 10 -14 6 0 10 7 10 16 0 8 4 13 10 9 5 -3 7 -12 4 -19 -10 -27 19 -29 41
-3 16 18 26 22 34 14 7 -7 16 -3 31 16 12 15 27 27 33 26 8 0 8 -2 0 -6z
m-403 -27 c0 -3 -4 -8 -10 -11 -5 -3 -10 -1 -10 4 0 6 5 11 10 11 6 0 10 -2
10 -4z m-619 -43 c-8 -15 -10 -15 -11 -2 0 17 10 32 18 25 2 -3 -1 -13 -7 -23z
m1096 5 c-5 -20 -4 -21 6 -7 12 16 37 15 37 -2 0 -4 -6 -6 -13 -3 -7 2 -22 -4
-34 -15 -27 -25 -39 -4 -17 28 20 27 28 27 21 -1z m90 16 c-3 -3 -12 -4 -19
-1 -8 3 -5 6 6 6 11 1 17 -2 13 -5z m-547 -8 c0 -3 -4 -8 -10 -11 -5 -3 -10
-1 -10 4 0 6 5 11 10 11 6 0 10 -2 10 -4z m214 -46 c7 -7 6 -10 -1 -10 -7 0
-15 5 -18 10 -7 11 -52 3 -72 -12 -20 -16 -25 10 -7 35 18 23 18 23 53 5 19
-10 39 -22 45 -28z m137 3 c10 -12 11 -15 1 -9 -7 4 -19 2 -27 -4 -16 -14 -18
-10 -9 14 8 21 18 20 35 -1z m179 9 c0 -5 -7 -9 -15 -9 -8 0 -12 4 -9 9 3 4 9
8 15 8 5 0 9 -4 9 -8z m-1310 -22 c18 -12 2 -12 -25 0 -13 6 -15 9 -5 9 8 0
22 -4 30 -9z m1194 -4 c-4 -11 0 -13 18 -10 21 5 21 4 5 -6 -10 -7 -21 -9 -24
-6 -4 3 -13 0 -21 -7 -11 -9 -11 -4 2 16 20 29 29 35 20 13z m66 10 c0 -3 -4
-8 -10 -11 -5 -3 -10 -1 -10 4 0 6 5 11 10 11 6 0 10 -2 10 -4z m-1200 -26 c8
-5 11 -10 5 -10 -5 0 -17 5 -25 10 -8 5 -10 10 -5 10 6 0 17 -5 25 -10z m920
0 c8 -5 11 -12 8 -16 -4 -3 -14 1 -23 10 -18 17 -9 21 15 6z m60 -16 c0 -8 5
-14 11 -14 5 0 7 -4 4 -10 -3 -5 -11 -10 -16 -10 -6 0 -7 5 -4 10 3 6 -2 10
-12 11 -11 0 -13 3 -5 6 10 4 10 8 1 19 -10 12 -9 13 5 8 9 -3 16 -12 16 -20z
m-1050 12 c0 -2 -8 -10 -17 -17 -16 -13 -17 -12 -4 4 13 16 21 21 21 13z
m1129 -15 c12 -8 9 -11 -12 -17 -16 -3 -31 -4 -34 0 -4 3 1 6 11 6 9 0 14 5
11 10 -8 12 5 13 24 1z m256 -31 c-3 -5 -12 -10 -18 -10 -7 0 -6 4 3 10 19 12
23 12 15 0z m252 4 c-3 -3 -12 -4 -19 -1 -8 3 -5 6 6 6 11 1 17 -2 13 -5z m66
-1 c-7 -2 -21 -2 -30 0 -10 3 -4 5 12 5 17 0 24 -2 18 -5z m-1382 -39 c19 -21
20 -24 5 -18 -14 5 -17 4 -12 -4 4 -7 2 -12 -4 -12 -7 0 -9 7 -6 16 4 9 1 23
-5 30 -20 24 -4 15 22 -12z m881 9 c-6 -2 -9 -10 -5 -16 4 -7 0 -8 -11 -4 -10
4 -23 7 -29 8 -7 1 -1 5 13 9 28 9 52 11 32 3z m-57 -41 c-3 -3 -11 0 -18 7
-9 10 -8 11 6 5 10 -3 15 -9 12 -12z m-68 2 c-3 -3 -12 -4 -19 -1 -8 3 -5 6 6
6 11 1 17 -2 13 -5z m102 -18 c-2 -2 -15 -9 -29 -15 -24 -11 -24 -11 -6 3 16
13 49 24 35 12z m-1182 -12 c-3 -3 -12 -4 -19 -1 -8 3 -5 6 6 6 11 1 17 -2 13
-5z m557 -50 c4 -10 12 -14 22 -10 14 5 15 4 5 -8 -7 -8 -9 -21 -5 -27 4 -8 3
-9 -4 -5 -15 9 -16 -6 -2 -20 7 -7 4 -10 -12 -10 -13 1 -29 8 -36 16 -8 8 -11
10 -8 3 4 -6 3 -14 -2 -17 -4 -2 -8 6 -8 20 0 25 10 32 21 14 9 -15 25 -12 32
5 3 9 -3 25 -12 35 -10 11 -13 20 -8 20 6 0 14 -7 17 -16z m-244 -4 c0 -5 -2
-10 -4 -10 -3 0 -8 5 -11 10 -3 6 -1 10 4 10 6 0 11 -4 11 -10z m53 -29 c18
-6 18 -8 2 -21 -14 -12 -18 -12 -25 1 -7 10 -12 11 -21 2 -9 -9 -2 -14 27 -22
22 -6 46 -16 54 -22 13 -9 13 -10 -1 -6 -10 3 -37 11 -60 18 -24 7 -46 16 -49
20 -3 4 -14 9 -25 12 -13 3 -10 5 12 6 17 0 35 6 38 11 7 11 22 12 48 1z m287
-20 c16 -30 12 -36 -10 -16 -21 19 -26 35 -10 35 5 0 14 -9 20 -19z m430 -15
c0 -2 -7 -7 -16 -10 -8 -3 -12 -2 -9 4 6 10 25 14 25 6z"/>
<path d="M3940 9380 c0 -5 5 -10 10 -10 6 0 10 5 10 10 0 6 -4 10 -10 10 -5 0
-10 -4 -10 -10z"/>
<path d="M4155 8861 c-9 -15 1 -29 88 -125 44 -48 83 -83 89 -80 7 5 8 2 4 -5
-5 -8 16 -37 56 -79 35 -37 75 -83 88 -102 35 -50 240 -283 240 -273 1 4 6 -1
13 -13 23 -40 87 -108 87 -92 0 8 -9 23 -20 33 -25 23 -25 37 0 60 28 25 18
31 -15 9 -26 -17 -28 -17 -41 2 -31 43 -102 131 -144 179 -25 28 -67 77 -95
110 -27 32 -66 77 -86 99 -20 23 -79 91 -131 151 -109 126 -124 140 -133 126z"/>
<path d="M4150 8775 c0 -19 40 -75 53 -75 5 0 7 7 3 15 -3 8 -1 15 5 15 7 0 9
-10 5 -24 -5 -19 7 -37 62 -97 37 -41 80 -91 96 -112 31 -41 46 -47 43 -18 -1
12 -6 17 -16 13 -11 -4 -13 -1 -7 13 4 11 4 16 0 12 -8 -8 -44 21 -44 36 0 5
7 3 17 -4 15 -13 15 -12 2 9 -8 12 -15 18 -17 12 -2 -5 -8 -10 -14 -10 -5 0
-7 8 -3 19 4 13 -10 36 -48 78 -30 33 -66 77 -82 97 -28 37 -55 47 -55 21z
m160 -151 c0 -8 -19 -13 -24 -6 -3 5 1 9 9 9 8 0 15 -2 15 -3z m19 -37 c0 -9
-2 -8 -6 1 -2 6 -10 9 -15 6 -7 -4 -8 -2 -4 5 9 13 26 5 25 -12z"/>
<path d="M6100 8722 c0 -5 7 -17 15 -28 8 -10 15 -29 15 -41 0 -12 20 -62 44
-110 24 -49 56 -114 70 -146 25 -58 46 -68 46 -23 0 26 -59 160 -60 136 0 -13
-1 -13 -10 0 -13 20 -13 33 0 25 14 -9 12 5 -5 35 -8 14 -14 19 -15 11 0 -19
-30 6 -30 25 0 8 -4 14 -9 14 -5 0 -11 12 -13 28 -3 15 -9 36 -13 46 -6 14 -5
17 3 12 7 -4 12 -3 12 2 0 10 -23 22 -41 22 -5 0 -9 -4 -9 -8z"/>
<path d="M3735 8670 c-125 -28 -198 -40 -237 -40 -36 0 -48 -12 -48 -50 0 -21
11 -20 170 14 63 14 150 33 193 42 62 14 77 21 77 36 0 23 -44 23 -155 -2z"/>
<path d="M6158 8675 c5 -11 12 -27 15 -35 5 -13 6 -13 6 1 1 8 -6 24 -15 35
-15 19 -15 19 -6 -1z"/>
<path d="M5710 8581 c0 -6 4 -13 10 -16 6 -3 7 1 4 9 -7 18 -14 21 -14 7z"/>
<path d="M6630 8367 c0 -30 33 -113 52 -129 16 -15 58 -26 58 -15 0 1 -7 24
-15 51 -17 57 -28 72 -67 92 -23 12 -28 12 -28 1z"/>
<path d="M3650 8190 c-74 -130 -91 -166 -85 -187 6 -25 7 -24 42 28 70 107
154 261 156 286 4 58 -25 25 -113 -127z"/>
<path d="M6291 8332 c-9 -17 -5 -34 20 -87 17 -37 33 -64 36 -61 3 2 -2 19
-10 36 -15 29 -15 31 2 25 16 -5 16 0 -7 47 -31 66 -28 64 -41 40z"/>
<path d="M5304 8288 c5 -50 5 -50 26 -43 23 7 28 -10 5 -19 -25 -9 -19 -61 10
-74 16 -7 26 -8 30 -1 10 15 -5 88 -22 104 -8 8 -11 20 -8 26 6 9 -21 38 -37
39 -3 0 -5 -15 -4 -32z"/>
<path d="M7280 8251 c0 -22 45 -117 85 -181 13 -20 51 -91 85 -158 55 -108 94
-161 108 -147 3 3 -11 35 -30 72 -72 139 -182 349 -202 387 -24 45 -46 58 -46
27z"/>
<path d="M5190 8146 c0 -9 8 -16 20 -16 11 0 20 -4 20 -10 0 -5 5 -10 11 -10
5 0 46 -18 90 -40 44 -22 86 -40 93 -40 6 0 21 -7 31 -15 11 -9 40 -26 65 -38
36 -18 44 -27 42 -45 -2 -12 2 -22 7 -22 6 0 11 9 11 20 0 11 1 20 3 20 1 0
41 -19 87 -42 74 -37 86 -47 90 -73 4 -22 11 -31 28 -33 17 -3 22 2 22 17 0
26 12 26 59 2 64 -35 112 -54 118 -48 22 23 -80 84 -120 71 -14 -4 -17 -3 -12
6 6 10 1 11 -21 6 -16 -4 -26 -4 -22 0 4 3 -2 18 -12 32 -11 13 -20 30 -20 37
0 7 -12 48 -26 91 -23 72 -47 115 -58 103 -5 -5 20 -128 34 -164 17 -44 12
-45 -52 -15 -35 17 -69 30 -75 30 -7 0 -13 9 -13 20 0 22 -16 27 -22 8 -4 -11
-99 28 -278 115 -47 23 -88 44 -92 45 -5 2 -8 -3 -8 -12z"/>
<path d="M5020 8122 c0 -20 68 -118 89 -129 37 -18 44 -5 20 35 -12 21 -27 47
-33 59 -15 29 -76 58 -76 35z"/>
<path d="M8865 8060 c3 -5 8 -10 11 -10 2 0 4 5 4 10 0 6 -5 10 -11 10 -5 0
-7 -4 -4 -10z"/>
<path d="M8830 7963 c1 -5 12 -21 25 -38 28 -34 35 -14 9 23 -15 21 -34 30
-34 15z"/>
<path d="M8900 7930 c0 -5 5 -10 10 -10 6 0 10 5 10 10 0 6 -4 10 -10 10 -5 0
-10 -4 -10 -10z"/>
<path d="M5950 7901 c0 -11 133 -111 149 -111 6 0 11 5 11 10 0 6 -3 10 -8 10
-4 0 -18 10 -32 23 -30 28 -102 77 -112 77 -5 0 -8 -4 -8 -9z"/>
<path d="M8230 7898 c0 -19 29 -179 56 -308 13 -63 28 -144 33 -180 18 -117
23 -140 38 -151 7 -7 16 -9 20 -6 3 4 -4 66 -16 139 -12 73 -24 147 -26 163
-6 36 -10 55 -31 160 -9 44 -18 94 -19 110 -2 17 -3 35 -4 42 -1 14 -29 43
-42 43 -5 0 -9 -6 -9 -12z"/>
<path d="M5210 7833 c-32 -22 -41 -36 -30 -47 9 -9 52 19 69 47 15 23 -6 23
-39 0z"/>
<path d="M7613 7791 c3 -24 11 -49 17 -55 9 -8 10 0 5 34 -10 61 -29 80 -22
21z"/>
<path d="M5270 7811 c0 -6 4 -13 10 -16 6 -3 7 1 4 9 -7 18 -14 21 -14 7z"/>
<path d="M5440 7759 c7 -11 14 -19 16 -16 7 7 -7 37 -17 37 -6 0 -5 -9 1 -21z"/>
<path d="M8857 7740 c-24 -34 -21 -48 4 -22 11 13 19 28 17 34 -3 7 -12 1 -21
-12z"/>
<path d="M7345 7605 c211 -202 325 -288 325 -246 0 4 -44 46 -97 92 -54 46
-143 123 -197 171 -58 51 -108 88 -120 88 -16 0 7 -27 89 -105z"/>
<path d="M6536 7674 c-7 -19 6 -41 64 -104 23 -25 39 -36 36 -26 -6 16 -4 17
9 6 40 -33 -10 57 -63 113 -30 31 -37 33 -46 11z"/>
<path d="M5813 7642 c6 -35 37 -72 59 -72 6 0 8 10 4 23 -3 12 -6 31 -6 42 0
14 -10 25 -31 32 l-31 12 5 -37z"/>
<path d="M7966 7653 c-10 -10 -7 -35 3 -29 5 4 12 0 14 -6 3 -7 6 -3 6 9 1 23
-12 37 -23 26z"/>
<path d="M8879 7631 c-31 -14 -106 -48 -167 -76 -61 -27 -109 -51 -107 -53 4
-5 312 118 331 133 33 24 -2 22 -57 -4z"/>
<path d="M7950 7550 c0 -5 5 -10 10 -10 6 0 10 5 10 10 0 6 -4 10 -10 10 -5 0
-10 -4 -10 -10z"/>
<path d="M7130 7516 c0 -9 7 -19 15 -22 10 -4 13 -14 9 -30 -4 -17 -2 -24 8
-24 21 0 11 54 -13 76 -18 16 -19 16 -19 0z"/>
<path d="M6640 7516 c0 -2 8 -10 18 -17 15 -13 16 -12 3 4 -13 16 -21 21 -21
13z"/>
<path d="M9040 7474 c0 -8 5 -12 10 -9 6 4 8 11 5 16 -9 14 -15 11 -15 -7z"/>
<path d="M3111 7448 c-14 -45 -18 -147 -6 -148 6 0 13 32 17 71 4 39 12 77 18
84 10 12 4 25 -11 25 -4 0 -12 -15 -18 -32z"/>
<path d="M6534 7331 c3 -5 40 -21 82 -37 62 -22 81 -34 96 -60 19 -32 42 -36
60 -11 4 7 28 2 63 -11 63 -24 75 -26 75 -13 0 5 -31 18 -68 30 -38 11 -86 34
-107 51 -21 17 -45 28 -53 25 -8 -3 -43 4 -79 15 -74 23 -76 23 -69 11z"/>
<path d="M7780 7326 c0 -8 5 -27 12 -43 6 -15 12 -31 12 -35 2 -12 47 -41 53
-34 9 8 -49 119 -64 124 -7 2 -13 -3 -13 -12z"/>
<path d="M9019 7283 c-2 -56 2 -77 14 -85 20 -12 28 8 25 63 -2 42 -7 55 -20
57 -15 3 -18 -4 -19 -35z"/>
<path d="M8448 7268 c-2 -13 -1 -34 3 -48 5 -19 7 -14 8 23 1 50 -4 62 -11 25z"/>
<path d="M7350 7264 c0 -11 8 -14 33 -10 44 6 45 6 22 16 -32 14 -55 11 -55
-6z"/>
<path d="M9126 7255 c-19 -28 -20 -41 -6 -50 9 -5 40 50 40 70 0 14 -19 2 -34
-20z"/>
<path d="M8960 7225 c0 -14 5 -25 10 -25 6 0 8 -11 4 -26 -5 -18 -3 -25 3 -21
6 4 13 -2 16 -13 3 -10 0 -21 -6 -23 -16 -5 0 -37 19 -37 12 0 15 6 10 25 -4
14 -9 46 -13 73 -6 47 -18 72 -34 72 -5 0 -9 -11 -9 -25z"/>
<path d="M8645 7190 c-6 -10 76 -159 145 -265 15 -22 48 -79 75 -127 27 -49
55 -88 62 -88 7 0 13 5 13 11 0 15 -256 448 -280 472 -4 5 -11 4 -15 -3z"/>
<path d="M7346 7176 c21 -15 30 -14 19 3 -3 6 -14 11 -23 11 -13 0 -13 -2 4
-14z"/>
<path d="M8113 7183 c9 -2 23 -2 30 0 6 3 -1 5 -18 5 -16 0 -22 -2 -12 -5z"/>
<path d="M9167 7183 c-13 -12 -7 -23 12 -23 10 0 24 7 31 15 10 13 9 15 -12
15 -14 0 -28 -3 -31 -7z"/>
<path d="M7785 7170 c3 -5 8 -10 11 -10 2 0 4 5 4 10 0 6 -5 10 -11 10 -5 0
-7 -4 -4 -10z"/>
<path d="M9261 7082 c14 -64 47 -72 35 -9 -4 22 -13 37 -25 40 -16 4 -17 0
-10 -31z"/>
<path d="M7788 7093 c7 -3 16 -2 19 1 4 3 -2 6 -13 5 -11 0 -14 -3 -6 -6z"/>
<path d="M7160 7060 c0 -32 22 -70 42 -70 22 0 22 1 1 44 -19 41 -43 55 -43
26z"/>
<path d="M8230 7045 c0 -15 26 -32 36 -23 2 3 2 13 -2 22 -8 20 -34 21 -34 1z
m25 -5 c3 -5 1 -10 -4 -10 -6 0 -11 5 -11 10 0 6 2 10 4 10 3 0 8 -4 11 -10z"/>
<path d="M7060 7029 c0 -5 9 -9 20 -9 11 0 20 2 20 4 0 2 -9 6 -20 9 -11 3
-20 1 -20 -4z"/>
<path d="M8090 7029 c0 -5 5 -7 10 -4 6 3 10 8 10 11 0 2 -4 4 -10 4 -5 0 -10
-5 -10 -11z"/>
<path d="M8520 7027 c0 -17 20 -37 37 -37 20 0 15 13 -12 33 -19 13 -25 15
-25 4z"/>
<path d="M7960 7011 c0 -5 19 -21 43 -35 43 -26 39 -34 -7 -16 -16 6 -35 6
-48 0 l-23 -9 23 0 c12 -1 30 -5 40 -11 53 -30 314 -120 347 -120 20 1 20 1 1
15 -10 8 -55 26 -100 40 -45 14 -105 33 -134 43 -32 10 -51 21 -48 28 3 7 -3
19 -12 27 -26 22 -82 49 -82 38z"/>
<path d="M8060 6981 c2 -32 80 -72 120 -61 l25 6 -31 17 c-42 22 -114 46 -114
38z"/>
<path d="M7535 6930 c3 -5 16 -10 28 -9 21 0 21 1 2 9 -28 12 -37 12 -30 0z"/>
<path d="M7620 6883 c0 -32 12 -63 24 -63 20 0 16 43 -4 63 -19 17 -20 17 -20
0z"/>
<path d="M7755 6856 c11 -9 37 -19 58 -22 20 -4 40 -11 43 -15 3 -5 17 -9 32
-9 15 -1 52 -10 82 -21 30 -11 83 -28 118 -38 34 -9 68 -23 74 -29 7 -7 24
-12 39 -12 15 0 56 -9 91 -20 69 -22 92 -25 84 -11 -3 4 -27 14 -53 21 -27 7
-52 16 -58 20 -5 4 -23 10 -40 14 -33 8 -45 21 -45 52 0 11 -10 30 -23 42 -27
26 -39 28 -31 7 8 -19 -9 -19 -46 0 -43 22 -37 11 15 -26 25 -18 45 -36 45
-39 0 -15 -163 30 -249 67 -34 15 -48 19 -116 29 -38 6 -39 5 -20 -10z"/>
<path d="M7577 6820 c8 -29 25 -37 21 -9 -1 12 -8 24 -15 26 -7 3 -9 -3 -6
-17z"/>
<path d="M8954 6812 c6 -36 54 -162 67 -176 34 -37 -5 91 -52 174 l-20 35 5
-33z"/>
<path d="M7211 6814 c13 -16 29 -19 29 -5 0 5 -9 11 -21 14 -16 4 -18 3 -8 -9z"/>
<path d="M8620 6799 c7 -11 14 -18 17 -15 8 8 -5 36 -17 36 -7 0 -7 -6 0 -21z"/>
<path d="M9170 6780 c0 -5 5 -10 11 -10 5 0 7 5 4 10 -3 6 -8 10 -11 10 -2 0
-4 -4 -4 -10z"/>
<path d="M7650 6748 c0 -12 34 -82 47 -95 26 -28 33 0 8 32 -39 52 -54 69 -55
63z"/>
<path d="M8575 6729 c-4 -6 -5 -13 -2 -16 7 -7 27 6 27 18 0 12 -17 12 -25 -2z"/>
<path d="M7770 6718 c0 -20 45 -71 63 -74 10 -1 17 2 17 7 0 5 -5 9 -11 9 -5
0 -8 4 -5 9 7 10 -38 61 -54 61 -5 0 -10 -6 -10 -12z"/>
<path d="M9170 6673 c0 -11 -5 -24 -12 -31 -9 -9 -7 -13 6 -18 21 -8 24 -6 28
30 2 17 -2 31 -9 33 -8 3 -13 -3 -13 -14z"/>
<path d="M8130 6624 c0 -15 44 -83 51 -79 8 6 -32 85 -43 85 -5 0 -8 -3 -8 -6z"/>
<path d="M7330 6611 c0 -5 -11 -12 -25 -15 -14 -4 -25 -13 -25 -22 0 -13 5
-12 28 4 26 19 44 18 71 -4 1 -1 -4 -13 -13 -26 -20 -28 -21 -50 -1 -24 15 20
15 20 16 0 1 -10 5 -4 9 15 7 29 5 37 -18 57 -29 25 -42 30 -42 15z"/>
<path d="M8317 6575 c3 -27 9 -54 14 -60 10 -10 2 39 -12 85 -5 16 -6 6 -2
-25z"/>
<path d="M7980 6581 c0 -11 26 -22 34 -14 12 12 5 23 -14 23 -11 0 -20 -4 -20
-9z"/>
<path d="M8850 6553 c0 -7 17 -43 37 -80 43 -80 41 -78 49 -71 6 7 -45 111
-70 143 -8 11 -16 15 -16 8z"/>
<path d="M7257 6543 c-12 -12 -7 -22 8 -17 8 4 15 10 15 15 0 11 -14 12 -23 2z"/>
<path d="M7666 6492 c-3 -5 -19 -7 -37 -4 -23 3 -30 1 -24 -7 4 -7 14 -11 23
-9 9 2 24 -4 33 -13 10 -10 33 -17 53 -17 20 0 52 -9 71 -21 44 -26 47 -8 6
37 -32 35 -41 38 -58 21 -8 -8 -18 -6 -36 6 -14 9 -28 12 -31 7z"/>
<path d="M9228 6493 c10 -4 10 -8 1 -19 -9 -11 -8 -14 4 -14 22 0 32 20 16 31
-8 5 -18 8 -24 8 -5 0 -4 -3 3 -6z"/>
<path d="M9144 6409 c3 -17 6 -35 6 -40 0 -15 27 -10 40 7 11 12 11 15 -1 12
-7 -2 -15 6 -17 19 -2 12 -10 24 -19 27 -13 5 -14 1 -9 -25z"/>
<path d="M8270 6416 c0 -9 5 -16 10 -16 6 0 10 4 10 9 0 6 -4 13 -10 16 -5 3
-10 -1 -10 -9z"/>
<path d="M8975 6380 c-7 -12 2 -30 16 -30 12 0 12 27 0 35 -5 3 -12 1 -16 -5z"/>
<path d="M7721 6354 c13 -16 29 -19 29 -5 0 5 -9 11 -21 14 -16 4 -18 3 -8 -9z"/>
<path d="M7646 6311 c-4 -5 3 -7 14 -4 23 6 26 13 6 13 -8 0 -17 -4 -20 -9z"/>
<path d="M8980 6287 c0 -7 7 -22 15 -33 19 -25 19 -38 -1 -30 -9 4 -13 2 -8
-5 4 -6 0 -16 -7 -21 -10 -7 -9 -8 6 -3 11 4 26 7 33 6 6 -1 22 -2 35 -3 12
-1 28 -8 36 -15 7 -8 16 -11 20 -8 3 4 -2 11 -12 16 -9 6 -17 14 -17 20 0 10
-11 26 -47 65 -24 26 -53 32 -53 11z"/>
<path d="M9140 6279 c0 -5 5 -7 10 -4 6 3 10 8 10 11 0 2 -4 4 -10 4 -5 0 -10
-5 -10 -11z"/>
<path d="M4117 7686 c-9 -7 -17 -19 -17 -27 0 -9 8 -6 22 9 25 24 22 37 -5 18z"/>
<path d="M4171 7444 c-75 -16 -74 -16 -65 -39 6 -13 14 -16 43 -11 72 11 141
37 141 51 0 18 -32 18 -119 -1z"/>
<path d="M3901 7199 c-1 -9 -8 -22 -16 -29 -8 -7 -15 -20 -15 -29 0 -10 8 -4
21 16 11 18 18 38 16 45 -4 9 -6 7 -6 -3z"/>
<path d="M3840 7166 c0 -7 -7 -19 -15 -26 -9 -7 -13 -15 -10 -18 6 -6 45 37
45 50 0 4 -4 8 -10 8 -5 0 -10 -6 -10 -14z"/>
<path d="M4745 7106 c-116 -21 -187 -27 -180 -16 3 5 1 10 -5 10 -15 0 -118
-25 -185 -45 -75 -22 -382 -95 -402 -95 -18 0 -85 -21 -93 -30 -3 -3 -21 -13
-40 -23 l-35 -18 53 5 c28 3 52 2 52 -3 0 -10 108 12 220 44 47 14 111 32 142
41 32 8 60 20 63 25 9 13 75 11 75 -2 0 -14 24 -11 260 30 196 35 204 37 195
51 -3 6 1 13 9 16 25 10 8 24 -27 23 -18 0 -63 -6 -102 -13z"/>
<path d="M3967 6794 c-99 -90 -100 -91 -89 -98 11 -7 172 129 172 145 0 20
-23 7 -83 -47z"/>
<path d="M3946 6677 c-54 -40 -117 -84 -140 -98 -24 -15 -42 -34 -44 -47 -2
-12 -1 -22 3 -22 15 0 86 43 142 87 35 26 85 65 113 86 47 35 59 57 34 63 -5
2 -53 -29 -108 -69z"/>
<path d="M3688 6696 c-43 -26 -80 -57 -74 -64 3 -2 22 6 43 19 21 13 46 29 57
34 20 10 34 36 19 34 -4 0 -25 -11 -45 -23z"/>
<path d="M4215 6652 c-6 -5 -26 -15 -45 -22 -75 -28 -182 -92 -171 -103 7 -7
43 6 118 43 101 50 122 64 123 83 0 10 -14 9 -25 -1z"/>
<path d="M3707 6614 c-4 -4 3 -18 15 -31 22 -24 48 -31 48 -13 0 6 -5 10 -11
10 -6 0 -18 9 -28 21 -9 11 -20 17 -24 13z"/>
<path d="M3380 6590 c-8 -5 -11 -12 -7 -16 4 -4 13 -2 19 4 15 15 7 24 -12 12z"/>
<path d="M3497 6543 c-12 -12 -7 -22 8 -17 8 4 15 10 15 15 0 11 -14 12 -23 2z"/>
<path d="M3460 6409 c0 -5 5 -7 10 -4 6 3 10 8 10 11 0 2 -4 4 -10 4 -5 0 -10
-5 -10 -11z"/>
<path d="M4950 6404 c-25 -7 -124 -32 -220 -54 -96 -22 -209 -50 -250 -61 -41
-11 -93 -25 -115 -30 -95 -23 -112 -29 -112 -44 0 -20 24 -19 110 4 99 27 363
88 412 96 22 3 86 20 143 37 75 23 102 36 100 46 -4 21 -16 22 -68 6z"/>
<path d="M3809 6347 c-45 -72 -53 -90 -37 -85 20 7 78 87 78 109 0 29 -13 22
-41 -24z"/>
<path d="M3677 6188 c-6 -18 69 -118 88 -118 21 0 19 11 -7 46 -46 61 -75 87
-81 72z"/>
<path d="M5485 6149 c-99 -9 -225 -21 -279 -26 -65 -5 -101 -12 -104 -20 -2
-8 5 -13 17 -13 12 0 30 -5 40 -12 15 -9 49 -9 151 1 114 10 135 10 149 -3 13
-11 43 -14 146 -11 72 2 137 5 145 8 8 3 28 8 44 12 40 9 20 25 -32 28 -23 0
-38 4 -33 7 5 3 11 15 15 28 7 21 5 22 -36 21 -24 -1 -124 -10 -223 -20z"/>
<path d="M3995 6096 c-87 -60 -112 -86 -81 -86 15 0 191 113 201 129 2 5 -3
11 -13 13 -11 3 -52 -19 -107 -56z"/>
<path d="M5870 6140 c0 -5 5 -10 11 -10 5 0 7 5 4 10 -3 6 -8 10 -11 10 -2 0
-4 -4 -4 -10z"/>
<path d="M7120 6020 c0 -16 30 -27 132 -49 197 -42 219 -18 26 28 -144 34
-158 36 -158 21z"/>
<path d="M4560 5963 c-158 -61 -288 -109 -395 -145 -49 -17 -94 -35 -99 -39
-23 -21 87 -7 165 20 390 137 469 171 469 202 0 15 -18 10 -140 -38z"/>
<path d="M5751 5969 c-20 -22 -81 -37 -81 -20 0 6 5 11 10 11 6 0 10 5 10 10
0 7 -24 8 -67 4 -85 -8 -96 -13 -78 -37 10 -14 18 -16 39 -7 18 7 26 6 26 -1
0 -8 4 -8 14 0 10 8 20 7 42 -4 28 -15 54 -14 137 1 26 5 27 7 13 23 -10 11
-12 21 -6 27 5 5 -1 10 -16 10 -14 1 -33 -7 -43 -17z"/>
<path d="M4015 5950 c-60 -10 -166 -26 -235 -35 -114 -16 -165 -34 -147 -51 7
-7 279 23 477 52 100 15 130 26 130 45 0 14 -103 8 -225 -11z"/>
<path d="M5437 5954 c-1 -1 -33 -5 -72 -9 -38 -3 -115 -11 -170 -17 -55 -6
-113 -12 -130 -14 -16 -1 -68 -6 -115 -10 -76 -6 -130 -24 -130 -43 0 -4 19
-12 43 -19 36 -11 67 -10 187 3 78 9 154 15 166 12 32 -6 304 39 318 53 7 7 4
10 -8 10 -14 0 -17 5 -13 20 5 19 1 20 -34 18 -22 -1 -41 -3 -42 -4z m51 -26
c-6 -17 -36 -34 -44 -25 -4 4 1 14 12 22 23 18 37 19 32 3z"/>
<path d="M3587 5923 c-4 -3 -7 -11 -7 -17 0 -6 5 -5 12 2 6 6 9 14 7 17 -3 3
-9 2 -12 -2z"/>
<path d="M3463 5890 c-31 -39 -29 -45 7 -18 17 12 30 28 30 35 0 20 -13 15
-37 -17z"/>
<path d="M6972 5908 c5 -15 28 -18 29 -3 0 6 -7 12 -17 13 -10 3 -15 -1 -12
-10z"/>
<path d="M7310 5900 c0 -5 24 -10 54 -10 30 0 58 5 61 10 4 6 -17 10 -54 10
-34 0 -61 -4 -61 -10z"/>
<path d="M7655 5900 c3 -5 8 -10 11 -10 2 0 4 5 4 10 0 6 -5 10 -11 10 -5 0
-7 -4 -4 -10z"/>
<path d="M7810 5888 c-65 -9 -99 -30 -59 -36 20 -3 20 -8 14 -85 -3 -45 -8
-121 -10 -169 -1 -48 -5 -90 -8 -95 -3 -4 -8 -46 -11 -93 -4 -46 -8 -85 -9
-86 -1 -1 -33 4 -72 12 -38 7 -79 13 -90 13 -19 0 -19 0 -1 -10 23 -14 128
-39 138 -33 8 5 21 -15 25 -39 3 -19 2 -19 -102 0 l-30 5 20 -20 c17 -18 47
-28 92 -31 14 -1 16 -80 3 -101 -6 -10 -27 -10 -96 0 -49 6 -105 15 -126 19
-31 7 -37 6 -41 -10 -5 -20 -3 -21 88 -38 33 -6 86 -15 117 -21 l57 -11 -4
-37 c-1 -20 -3 -58 -4 -83 l-1 -46 -82 -12 c-102 -15 -324 -57 -398 -76 l-55
-13 40 -1 c22 -1 94 8 160 19 293 50 316 53 327 42 8 -8 18 -5 37 8 17 13 57
23 113 30 125 15 157 32 48 25 -47 -3 -102 -8 -122 -12 l-38 -6 0 77 c0 88 -9
84 121 60 92 -17 119 -15 119 10 0 10 -14 17 -37 21 -193 30 -193 30 -193 68
0 69 7 76 64 71 48 -5 50 -4 31 11 -11 9 -31 18 -45 21 -45 10 -49 12 -43 34
5 17 11 20 34 15 37 -8 39 12 3 25 l-26 10 7 113 c10 148 28 272 40 270 21 -4
80 -28 85 -34 3 -4 16 -9 30 -13 14 -4 21 -4 15 1 -5 4 -15 16 -20 27 -14 25
-97 58 -107 42 -4 -6 -8 17 -8 51 0 65 12 83 57 83 10 0 29 9 43 20 l25 20
-25 -1 c-14 -1 -54 -6 -90 -11z"/>
<path d="M7540 5857 c0 -15 187 -110 201 -101 13 8 -9 24 -107 73 -87 45 -94
47 -94 28z"/>
<path d="M7385 5789 c-4 -6 -5 -13 -2 -16 7 -7 27 6 27 18 0 12 -17 12 -25 -2z"/>
<path d="M6895 5734 l-30 -12 40 -6 c22 -4 56 -11 75 -16 19 -5 55 -13 80 -19
25 -5 66 -15 92 -20 54 -13 115 -14 104 -3 -4 4 -9 5 -10 2 -2 -3 -10 1 -19 9
-11 9 -17 10 -17 2 0 -6 -5 -11 -11 -11 -5 0 -8 4 -5 9 5 7 -41 21 -74 23 -3
0 -25 7 -50 14 -25 8 -57 14 -72 14 -15 0 -29 4 -32 9 -10 16 -40 18 -71 5z"/>
<path d="M7470 5728 c-14 -6 -20 -12 -14 -15 7 -2 27 3 45 11 24 10 28 14 14
15 -11 0 -31 -5 -45 -11z"/>
<path d="M7300 5696 c0 -22 17 -28 24 -10 9 22 8 24 -9 24 -8 0 -15 -6 -15
-14z"/>
<path d="M4816 5661 c-10 -16 49 -161 66 -161 12 0 11 4 -17 72 -14 34 -25 67
-25 74 0 17 -17 27 -24 15z"/>
<path d="M7580 5605 c0 -65 7 -77 30 -50 9 11 9 25 -1 65 -7 27 -16 50 -21 50
-4 0 -8 -29 -8 -65z"/>
<path d="M4170 5599 c-41 -4 -135 -14 -209 -22 -96 -10 -137 -19 -145 -29 -7
-9 -20 -18 -31 -21 -41 -10 30 -7 175 8 255 26 325 36 335 49 6 7 17 15 25 19
21 8 -61 6 -150 -4z"/>
<path d="M4354 5595 c-10 -8 -17 -15 -14 -15 3 -1 97 -4 209 -7 170 -5 203 -3
199 8 -9 27 -360 40 -394 14z"/>
<path d="M6325 5580 c-3 -6 0 -12 7 -14 36 -11 67 -18 103 -22 22 -2 90 -11
150 -19 61 -8 128 -17 150 -19 22 -2 87 -11 145 -20 131 -19 150 -20 150 -2 0
9 -25 17 -82 24 -46 6 -128 18 -183 27 -121 19 -394 55 -417 55 -9 0 -20 -5
-23 -10z"/>
<path d="M7960 5535 c0 -30 5 -55 10 -55 6 0 10 25 10 55 0 30 -4 55 -10 55
-5 0 -10 -25 -10 -55z"/>
<path d="M4184 5505 c-21 -50 -17 -55 11 -13 28 41 30 48 14 48 -5 0 -17 -16
-25 -35z"/>
<path d="M4715 5533 c-78 -18 -97 -25 -88 -34 13 -13 115 12 121 29 4 12 1 13
-33 5z"/>
<path d="M6615 5480 c-22 -6 -24 -8 -9 -9 12 0 39 -7 60 -15 22 -7 75 -16 118
-19 83 -7 91 -10 99 -42 4 -18 5 -17 6 3 1 22 3 23 64 16 34 -3 103 -14 152
-23 50 -9 101 -14 115 -11 l25 6 -24 13 c-25 14 -49 19 -248 50 -67 10 -144
24 -173 30 -57 12 -139 13 -185 1z"/>
<path d="M4430 5421 c0 -7 -24 -11 -66 -11 -36 0 -84 -4 -107 -9 -23 -6 -55
-13 -71 -16 -60 -13 -8 -20 172 -25 103 -3 196 -10 206 -15 13 -5 17 -5 13 2
-8 13 47 23 126 23 31 0 57 4 57 9 0 17 -45 25 -170 31 -69 3 -133 9 -142 14
-12 5 -18 4 -18 -3z"/>
<path d="M6343 5409 c-2 -19 2 -20 95 -15 53 3 108 8 122 13 23 7 22 8 -15 15
-22 4 -76 7 -120 7 -75 1 -81 -1 -82 -20z"/>
<path d="M5665 5358 c-126 -12 -213 -25 -217 -32 -12 -18 43 -24 139 -15 48 5
128 12 177 15 72 6 93 11 115 30 17 15 21 23 11 23 -8 -1 -109 -10 -225 -21z"/>
<path d="M7880 5350 c8 -5 22 -9 30 -9 10 0 8 3 -5 9 -27 12 -43 12 -25 0z"/>
<path d="M4115 5326 c-20 -14 -20 -14 5 -20 14 -3 63 -14 110 -25 47 -10 103
-22 125 -25 43 -7 221 -47 450 -101 171 -41 173 -41 210 -26 l30 13 -35 13
c-19 8 -111 30 -205 50 -93 20 -242 53 -330 75 -88 21 -187 41 -220 44 -33 4
-73 9 -90 12 -19 3 -38 0 -50 -10z"/>
<path d="M3925 5309 c22 -4 49 -8 60 -8 l20 0 -20 9 c-11 5 -38 8 -60 8 l-40
0 40 -9z"/>
<path d="M6956 5287 c-3 -16 -4 -32 -1 -37 3 -5 1 -11 -5 -15 -5 -3 -10 -14
-10 -23 0 -24 19 -2 29 34 4 16 5 38 1 49 -6 17 -8 16 -14 -8z"/>
<path d="M7290 5163 c-47 -30 -92 -58 -100 -63 -8 -5 -12 -11 -8 -15 7 -7 119
56 176 98 64 48 16 34 -68 -20z"/>
<path d="M3790 5160 c0 -11 -1 -23 -2 -26 -2 -4 74 -6 167 -5 146 1 172 4 183
18 6 9 12 20 12 25 0 4 -81 8 -180 8 -173 0 -180 -1 -180 -20z"/>
<path d="M4475 5154 c-38 -7 -102 -19 -142 -27 -39 -8 -77 -11 -84 -6 -7 4
-17 2 -23 -5 -6 -7 -51 -21 -101 -30 -129 -25 -197 -45 -190 -56 4 -6 18 -10
33 -10 26 -1 26 -1 8 -15 -29 -22 -18 -24 59 -10 39 7 112 21 164 30 l94 17
47 -47 c29 -29 53 -44 60 -40 8 5 -2 21 -30 50 l-42 42 80 13 c62 9 79 15 75
26 -3 9 6 18 26 25 27 10 51 35 51 53 0 7 4 7 -85 -10z"/>
<path d="M5265 5105 c-38 -25 -98 -61 -132 -82 -58 -35 -74 -55 -55 -67 10 -6
282 171 282 184 0 18 -25 9 -95 -35z"/>
<path d="M4630 5113 c0 -19 11 -43 21 -43 13 0 11 14 -6 36 -8 10 -15 14 -15
7z"/>
<path d="M6346 5013 c-3 -3 -6 -22 -6 -42 0 -75 -6 -81 -74 -81 l-61 -1 24
-19 c13 -11 38 -20 57 -20 43 0 48 -12 39 -95 l-6 -64 -47 -3 c-37 -2 -46 -6
-44 -20 1 -9 -5 -18 -15 -21 -24 -5 -3 -14 58 -22 l47 -6 3 -84 c4 -76 11
-106 24 -93 3 2 8 40 12 84 3 43 10 81 14 85 5 3 55 -1 111 -8 102 -12 204
-16 181 -6 -20 7 -15 23 6 23 10 0 24 6 30 14 9 11 -7 15 -89 25 -56 6 -118
11 -139 11 -21 0 -53 3 -70 6 l-32 7 3 81 3 81 75 2 c238 8 696 36 704 44 5 5
7 12 3 15 -8 8 -174 6 -501 -6 -148 -6 -271 -8 -274 -5 -3 3 -7 30 -10 60 -4
54 -12 71 -26 58z"/>
<path d="M5876 4943 c-8 -9 174 -193 191 -193 29 0 9 30 -75 113 -84 84 -101
95 -116 80z"/>
<path d="M4568 4922 c-16 -9 -28 -20 -28 -24 0 -15 17 -8 40 17 27 29 25 31
-12 7z"/>
<path d="M3815 4910 c-7 -11 58 -40 91 -40 13 0 24 4 24 10 0 5 -7 7 -15 4 -8
-4 -21 -1 -28 4 -22 19 -66 32 -72 22z"/>
<path d="M4665 4909 c-9 -13 -4 -18 21 -21 33 -4 144 13 144 23 0 13 -157 11
-165 -2z"/>
<path d="M4465 4854 c-211 -43 -245 -47 -264 -30 -18 16 -19 16 -17 -1 1 -13
-7 -19 -26 -21 -22 -3 -28 -9 -28 -28 0 -30 5 -30 135 -5 55 11 147 27 205 36
57 9 106 17 107 19 2 2 1 11 -3 20 -6 16 -56 20 -109 10z"/>
<path d="M7470 4749 c0 -13 5 -31 10 -39 7 -11 8 -5 4 20 -8 43 -14 51 -14 19z"/>
<path d="M7305 4719 c-11 -17 -2 -18 19 -3 17 12 17 14 4 14 -9 0 -20 -5 -23
-11z"/>
<path d="M7200 4699 c-26 -15 -29 -18 -10 -13 35 9 78 33 60 33 -8 0 -31 -9
-50 -20z"/>
<path d="M6873 4619 c-18 -12 -33 -25 -33 -30 0 -15 13 -10 54 21 45 34 28 41
-21 9z"/>
<path d="M7445 4589 c-11 -17 1 -21 15 -4 8 9 8 15 2 15 -6 0 -14 -5 -17 -11z"/>
<path d="M7106 4581 c-4 -7 -5 -15 -2 -18 9 -9 19 4 14 18 -4 11 -6 11 -12 0z"/>
<path d="M7066 4564 c-8 -22 -7 -34 3 -34 12 0 21 39 11 45 -4 3 -11 -2 -14
-11z"/>
<path d="M6850 4538 c0 -7 -3 -24 -6 -38 -5 -17 -4 -22 4 -15 16 15 26 65 13
65 -6 0 -11 -6 -11 -12z"/>
<path d="M6592 4486 c2 -31 6 -56 10 -56 12 0 9 98 -3 105 -7 5 -9 -11 -7 -49z"/>
<path d="M7319 4473 c-13 -16 -12 -17 4 -4 16 13 21 21 13 21 -2 0 -10 -8 -17
-17z"/>
<path d="M6980 4440 c0 -5 9 -10 20 -10 11 0 20 -6 20 -14 0 -11 9 -13 34 -9
19 3 58 0 86 -7 47 -11 72 -9 58 6 -3 3 -44 12 -89 20 -46 7 -94 16 -106 19
-13 3 -23 1 -23 -5z"/>
<path d="M7290 4420 c0 -5 7 -10 15 -10 8 0 15 5 15 10 0 6 -7 10 -15 10 -8 0
-15 -4 -15 -10z"/>
<path d="M7050 4355 c-11 -14 -12 -19 -2 -22 8 -3 12 -34 12 -109 0 -69 4
-104 11 -104 6 0 8 7 5 16 -4 9 0 26 7 38 15 23 30 137 21 160 -3 8 -12 12
-19 10 -7 -3 -15 2 -17 12 -3 16 -4 16 -18 -1z"/>
<path d="M6965 4331 c-3 -5 -1 -12 5 -16 5 -3 10 1 10 9 0 18 -6 21 -15 7z"/>
<path d="M4780 4301 c0 -5 7 -14 16 -22 14 -11 12 -15 -18 -30 -18 -10 -54
-25 -80 -34 -55 -19 -65 -40 -15 -32 58 10 197 68 197 83 0 8 -10 14 -22 14
-13 0 -32 7 -42 15 -22 17 -36 19 -36 6z"/>
<path d="M6699 4289 c16 -6 28 -6 35 1 7 7 -1 10 -24 9 -33 0 -34 -1 -11 -10z"/>
<path d="M7481 4282 c-7 -13 -11 -28 -8 -35 2 -7 9 -2 16 11 7 13 11 28 8 35
-2 7 -9 2 -16 -11z"/>
<path d="M6270 4260 c-58 -15 -131 -33 -162 -40 -37 -7 -58 -16 -58 -25 0 -8
3 -16 8 -18 4 -3 63 10 132 29 69 18 144 38 168 44 25 6 42 17 42 25 0 19 -5
19 -130 -15z"/>
<path d="M7207 4216 c-4 -10 -5 -21 -2 -24 9 -9 17 6 13 25 -3 17 -4 17 -11
-1z"/>
<path d="M4766 4155 c-6 -16 14 -31 77 -61 25 -12 37 -24 37 -38 0 -15 3 -17
12 -8 9 9 26 1 72 -32 88 -61 85 -61 96 -30 9 21 7 29 -7 40 -26 21 -258 144
-271 144 -5 0 -12 -7 -16 -15z"/>
<path d="M4695 4140 c-3 -5 -2 -10 4 -10 5 0 13 5 16 10 3 6 2 10 -4 10 -5 0
-13 -4 -16 -10z"/>
<path d="M5850 4082 c0 -11 123 -92 139 -92 28 0 6 29 -43 57 -64 36 -96 48
-96 35z"/>
<path d="M6350 4063 c0 -14 67 -76 72 -66 3 4 -13 23 -34 42 -21 18 -38 29
-38 24z"/>
<path d="M4657 4041 c-26 -3 -47 -9 -47 -13 0 -5 0 -11 0 -15 0 -9 185 -7 207
1 7 3 13 12 13 21 0 18 -5 19 -30 5 -13 -7 -21 -7 -25 0 -6 11 -38 11 -118 1z"/>
<path d="M6425 3985 c-27 -14 -99 -47 -158 -75 -99 -46 -107 -51 -97 -70 14
-27 27 -25 94 10 39 21 64 28 81 24 19 -5 25 -2 25 9 0 9 31 31 75 54 50 25
75 43 73 53 -5 23 -38 21 -93 -5z"/>
<path d="M6192 3925 c-26 -24 -42 -45 -36 -45 5 0 29 20 53 45 55 58 44 58
-17 0z"/>
<path d="M7221 3933 c-7 -8 -11 -16 -8 -19 2 -2 10 2 17 11 17 20 9 27 -9 8z"/>
<path d="M7106 3905 c-3 -8 -1 -15 4 -15 6 0 10 7 10 15 0 8 -2 15 -4 15 -2 0
-6 -7 -10 -15z"/>
<path d="M4865 3890 c3 -5 8 -10 11 -10 2 0 4 5 4 10 0 6 -5 10 -11 10 -5 0
-7 -4 -4 -10z"/>
<path d="M4726 3853 c-6 -14 -5 -15 5 -6 7 7 10 15 7 18 -3 3 -9 -2 -12 -12z"/>
<path d="M4860 3856 c0 -4 7 -14 15 -22 8 -9 15 -11 15 -6 0 5 -7 15 -15 22
-8 7 -15 9 -15 6z"/>
<path d="M6095 3827 c5 -18 3 -27 -5 -27 -6 0 -8 -4 -5 -10 10 -15 23 -12 34
9 8 14 6 23 -10 37 -20 18 -20 18 -14 -9z"/>
<path d="M6024 3802 c-24 -19 -39 -52 -24 -52 6 0 10 5 10 10 0 6 12 22 28 35
31 28 18 34 -14 7z"/>
<path d="M4734 3799 c-3 -6 -1 -16 5 -22 8 -8 11 -5 11 11 0 24 -5 28 -16 11z"/>
<path d="M4770 3790 c0 -11 5 -20 10 -20 6 0 10 9 10 20 0 11 -4 20 -10 20 -5
0 -10 -9 -10 -20z"/>
<path d="M5961 3743 c7 -12 15 -20 18 -17 3 2 -3 12 -13 22 -17 16 -18 16 -5
-5z"/>
<path d="M5240 3740 c0 -5 7 -10 15 -10 8 0 15 5 15 10 0 6 -7 10 -15 10 -8 0
-15 -4 -15 -10z"/>
<path d="M6425 6910 c3 -5 11 -10 16 -10 6 0 7 5 4 10 -3 6 -11 10 -16 10 -6
0 -7 -4 -4 -10z"/>
<path d="M6581 6831 c-16 -12 -22 -24 -18 -35 9 -24 26 -19 38 11 14 37 8 45
-20 24z"/>
<path d="M6867 6463 c-4 -3 -7 -11 -7 -17 0 -6 5 -5 12 2 6 6 9 14 7 17 -3 3
-9 2 -12 -2z"/>
<path d="M6830 6393 c0 -14 19 -38 25 -32 8 8 -5 39 -16 39 -5 0 -9 -3 -9 -7z"/>
<path d="M6770 6365 c0 -18 19 -40 26 -32 4 4 0 15 -9 24 -9 10 -17 13 -17 8z"/>
<path d="M6365 6020 c-3 -5 -1 -10 4 -10 6 0 11 5 11 10 0 6 -2 10 -4 10 -3 0
-8 -4 -11 -10z"/>
<path d="M6434 6017 c4 -13 -4 -24 -31 -39 -37 -22 -31 -38 6 -18 29 15 42 43
29 61 -8 11 -9 11 -4 -4z"/>
<path d="M6030 3630 c0 -5 5 -10 10 -10 6 0 10 5 10 10 0 6 -4 10 -10 10 -5 0
-10 -4 -10 -10z"/>
<path d="M5865 3600 c-3 -5 -1 -10 4 -10 6 0 11 5 11 10 0 6 -2 10 -4 10 -3 0
-8 -4 -11 -10z"/>
</g>
</svg>
